<mxfile host="app.diagrams.net" modified="2023-09-26T07:40:04.888Z" agent="Mozilla/5.0 (Windows NT 10.0; Win64; x64) AppleWebKit/537.36 (KHTML, like Gecko) Chrome/117.0.0.0 Safari/537.36" etag="h-tfQv7Ndk4oKehXlv93" version="21.8.1" type="github">
  <diagram name="Page-1" id="e3a06f82-3646-2815-327d-82caf3d4e204">
    <mxGraphModel dx="4097" dy="2257" grid="0" gridSize="10" guides="1" tooltips="1" connect="1" arrows="1" fold="1" page="1" pageScale="1.5" pageWidth="4681" pageHeight="3300" background="none" math="0" shadow="0">
      <root>
        <mxCell id="0" style=";html=1;" />
        <mxCell id="1" style=";html=1;" parent="0" />
        <mxCell id="LkdOfVyFh3dFV3emHNXY-2" value="" style="sketch=0;pointerEvents=1;shadow=0;dashed=0;html=1;strokeColor=none;fillColor=#505050;labelPosition=center;verticalLabelPosition=bottom;verticalAlign=top;outlineConnect=0;align=center;shape=mxgraph.office.servers.mainframe_host;" vertex="1" parent="1">
          <mxGeometry x="900.75" y="3342" width="108.5" height="131" as="geometry" />
        </mxCell>
        <mxCell id="LkdOfVyFh3dFV3emHNXY-3" value="" style="image;html=1;image=img/lib/clip_art/networking/Switch_128x128.png" vertex="1" parent="1">
          <mxGeometry x="1637" y="3342" width="250" height="187" as="geometry" />
        </mxCell>
        <mxCell id="LkdOfVyFh3dFV3emHNXY-4" value="" style="shape=mxgraph.cisco.switches.atm_switch;html=1;pointerEvents=1;dashed=0;fillColor=#036897;strokeColor=#ffffff;strokeWidth=2;verticalLabelPosition=bottom;verticalAlign=top;align=center;outlineConnect=0;" vertex="1" parent="1">
          <mxGeometry x="911" y="3638" width="88" height="83" as="geometry" />
        </mxCell>
        <mxCell id="LkdOfVyFh3dFV3emHNXY-5" value="" style="shape=mxgraph.cisco.switches.atm_switch;html=1;pointerEvents=1;dashed=0;fillColor=#036897;strokeColor=#ffffff;strokeWidth=2;verticalLabelPosition=bottom;verticalAlign=top;align=center;outlineConnect=0;" vertex="1" parent="1">
          <mxGeometry x="719.25" y="3638" width="88" height="83" as="geometry" />
        </mxCell>
        <mxCell id="LkdOfVyFh3dFV3emHNXY-6" value="" style="shape=mxgraph.cisco.switches.workgroup_switch;html=1;pointerEvents=1;dashed=0;fillColor=#036897;strokeColor=#ffffff;strokeWidth=2;verticalLabelPosition=bottom;verticalAlign=top;align=center;outlineConnect=0;" vertex="1" parent="1">
          <mxGeometry x="713" y="3966" width="101" height="50" as="geometry" />
        </mxCell>
        <mxCell id="LkdOfVyFh3dFV3emHNXY-7" value="" style="shape=mxgraph.cisco.switches.workgroup_switch;html=1;pointerEvents=1;dashed=0;fillColor=#036897;strokeColor=#ffffff;strokeWidth=2;verticalLabelPosition=bottom;verticalAlign=top;align=center;outlineConnect=0;" vertex="1" parent="1">
          <mxGeometry x="911" y="3963" width="101" height="50" as="geometry" />
        </mxCell>
        <mxCell id="LkdOfVyFh3dFV3emHNXY-8" value="Client" style="verticalLabelPosition=bottom;aspect=fixed;html=1;verticalAlign=top;strokeColor=none;shape=mxgraph.citrix.desktop;fillColor=#66B2FF;gradientColor=#0066CC;fontSize=14;" vertex="1" parent="1">
          <mxGeometry x="1226" y="3255" width="89" height="98" as="geometry" />
        </mxCell>
        <mxCell id="LkdOfVyFh3dFV3emHNXY-9" value="Client" style="verticalLabelPosition=bottom;aspect=fixed;html=1;verticalAlign=top;strokeColor=none;shape=mxgraph.citrix.desktop;fillColor=#66B2FF;gradientColor=#0066CC;fontSize=14;" vertex="1" parent="1">
          <mxGeometry x="1402.5" y="3323" width="89" height="98" as="geometry" />
        </mxCell>
        <mxCell id="LkdOfVyFh3dFV3emHNXY-10" value="Client" style="verticalLabelPosition=bottom;aspect=fixed;html=1;verticalAlign=top;strokeColor=none;shape=mxgraph.citrix.desktop;fillColor=#66B2FF;gradientColor=#0066CC;fontSize=14;" vertex="1" parent="1">
          <mxGeometry x="1422" y="3490" width="89" height="98" as="geometry" />
        </mxCell>
        <mxCell id="LkdOfVyFh3dFV3emHNXY-11" value="" style="verticalLabelPosition=bottom;aspect=fixed;html=1;verticalAlign=top;strokeColor=none;shape=mxgraph.citrix.switch;fillColor=#66B2FF;gradientColor=#0066CC;fontSize=14;" vertex="1" parent="1">
          <mxGeometry x="1180" y="3475" width="92" height="41.5" as="geometry" />
        </mxCell>
        <mxCell id="LkdOfVyFh3dFV3emHNXY-13" value="" style="verticalLabelPosition=top;aspect=fixed;html=1;verticalAlign=bottom;strokeColor=none;shape=mxgraph.citrix.cache_server;fillColor=#66B2FF;gradientColor=#0066CC;fontSize=14;labelPosition=center;align=center;" vertex="1" parent="1">
          <mxGeometry x="334.48" y="3633.75" width="89.02" height="122.25" as="geometry" />
        </mxCell>
        <mxCell id="LkdOfVyFh3dFV3emHNXY-16" value="" style="endArrow=none;html=1;rounded=0;" edge="1" parent="1" target="LkdOfVyFh3dFV3emHNXY-8">
          <mxGeometry width="50" height="50" relative="1" as="geometry">
            <mxPoint x="1224" y="3458" as="sourcePoint" />
            <mxPoint x="1286" y="3455" as="targetPoint" />
          </mxGeometry>
        </mxCell>
        <mxCell id="LkdOfVyFh3dFV3emHNXY-17" value="" style="endArrow=none;html=1;rounded=0;" edge="1" parent="1" target="LkdOfVyFh3dFV3emHNXY-9">
          <mxGeometry width="50" height="50" relative="1" as="geometry">
            <mxPoint x="1275" y="3480" as="sourcePoint" />
            <mxPoint x="1266" y="3363" as="targetPoint" />
          </mxGeometry>
        </mxCell>
        <mxCell id="LkdOfVyFh3dFV3emHNXY-18" value="" style="endArrow=none;html=1;rounded=0;" edge="1" parent="1">
          <mxGeometry width="50" height="50" relative="1" as="geometry">
            <mxPoint x="1285" y="3505" as="sourcePoint" />
            <mxPoint x="1404" y="3540" as="targetPoint" />
          </mxGeometry>
        </mxCell>
        <mxCell id="LkdOfVyFh3dFV3emHNXY-19" value="&lt;font style=&quot;vertical-align: inherit;&quot;&gt;&lt;font style=&quot;vertical-align: inherit; font-size: 20px;&quot;&gt;&lt;b&gt;&lt;font style=&quot;vertical-align: inherit;&quot;&gt;&lt;font style=&quot;vertical-align: inherit;&quot;&gt;集线器&lt;/font&gt;&lt;/font&gt;&lt;/b&gt;&lt;/font&gt;&lt;/font&gt;" style="text;html=1;strokeColor=none;fillColor=none;align=center;verticalAlign=middle;whiteSpace=wrap;rounded=0;" vertex="1" parent="1">
          <mxGeometry x="1191" y="3527" width="76" height="37" as="geometry" />
        </mxCell>
        <mxCell id="LkdOfVyFh3dFV3emHNXY-20" value="" style="sketch=0;pointerEvents=1;shadow=0;dashed=0;html=1;strokeColor=none;fillColor=#505050;labelPosition=center;verticalLabelPosition=bottom;verticalAlign=top;outlineConnect=0;align=center;shape=mxgraph.office.servers.mainframe_host;" vertex="1" parent="1">
          <mxGeometry x="709.25" y="3342" width="108.5" height="131" as="geometry" />
        </mxCell>
        <mxCell id="LkdOfVyFh3dFV3emHNXY-21" value="" style="verticalLabelPosition=bottom;aspect=fixed;html=1;verticalAlign=top;strokeColor=none;shape=mxgraph.citrix.desktop;fillColor=#66B2FF;gradientColor=#0066CC;fontSize=14;" vertex="1" parent="1">
          <mxGeometry x="362" y="3393" width="89" height="98" as="geometry" />
        </mxCell>
        <mxCell id="LkdOfVyFh3dFV3emHNXY-22" value="&lt;font style=&quot;vertical-align: inherit;&quot;&gt;&lt;font style=&quot;vertical-align: inherit; font-size: 20px;&quot;&gt;&lt;b&gt;&lt;font style=&quot;vertical-align: inherit;&quot;&gt;&lt;font style=&quot;vertical-align: inherit;&quot;&gt;&lt;font style=&quot;vertical-align: inherit;&quot;&gt;&lt;font style=&quot;vertical-align: inherit;&quot;&gt;主机&lt;/font&gt;&lt;/font&gt;&lt;/font&gt;&lt;/font&gt;&lt;/b&gt;&lt;/font&gt;&lt;/font&gt;" style="text;html=1;strokeColor=none;fillColor=none;align=center;verticalAlign=middle;whiteSpace=wrap;rounded=0;" vertex="1" parent="1">
          <mxGeometry x="620" y="3390" width="76" height="37" as="geometry" />
        </mxCell>
        <mxCell id="LkdOfVyFh3dFV3emHNXY-23" value="&lt;font style=&quot;vertical-align: inherit;&quot;&gt;&lt;font style=&quot;vertical-align: inherit; font-size: 20px;&quot;&gt;&lt;b&gt;&lt;font style=&quot;vertical-align: inherit;&quot;&gt;&lt;font style=&quot;vertical-align: inherit;&quot;&gt;&lt;font style=&quot;vertical-align: inherit;&quot;&gt;&lt;font style=&quot;vertical-align: inherit;&quot;&gt;&lt;font style=&quot;vertical-align: inherit;&quot;&gt;&lt;font style=&quot;vertical-align: inherit;&quot;&gt;主机&lt;/font&gt;&lt;/font&gt;&lt;/font&gt;&lt;/font&gt;&lt;/font&gt;&lt;/font&gt;&lt;/b&gt;&lt;/font&gt;&lt;/font&gt;" style="text;html=1;strokeColor=none;fillColor=none;align=center;verticalAlign=middle;whiteSpace=wrap;rounded=0;" vertex="1" parent="1">
          <mxGeometry x="1021" y="3390" width="76" height="37" as="geometry" />
        </mxCell>
        <mxCell id="LkdOfVyFh3dFV3emHNXY-26" value="" style="edgeStyle=none;orthogonalLoop=1;jettySize=auto;html=1;rounded=0;entryX=0.5;entryY=0;entryDx=0;entryDy=0;entryPerimeter=0;endArrow=none;endFill=0;" edge="1" parent="1" source="LkdOfVyFh3dFV3emHNXY-20" target="LkdOfVyFh3dFV3emHNXY-5">
          <mxGeometry width="100" relative="1" as="geometry">
            <mxPoint x="737" y="3552" as="sourcePoint" />
            <mxPoint x="837" y="3552" as="targetPoint" />
            <Array as="points" />
          </mxGeometry>
        </mxCell>
        <mxCell id="LkdOfVyFh3dFV3emHNXY-27" value="" style="endArrow=none;html=1;rounded=0;entryX=1;entryY=0.665;entryDx=0;entryDy=0;entryPerimeter=0;edgeStyle=orthogonalEdgeStyle;exitX=0.11;exitY=0.08;exitDx=0;exitDy=0;exitPerimeter=0;" edge="1" parent="1" source="LkdOfVyFh3dFV3emHNXY-5" target="LkdOfVyFh3dFV3emHNXY-21">
          <mxGeometry width="50" height="50" relative="1" as="geometry">
            <mxPoint x="497" y="3496" as="sourcePoint" />
            <mxPoint x="547" y="3446" as="targetPoint" />
          </mxGeometry>
        </mxCell>
        <mxCell id="LkdOfVyFh3dFV3emHNXY-28" value="" style="edgeStyle=none;orthogonalLoop=1;jettySize=auto;html=1;rounded=0;endArrow=none;endFill=0;exitX=0.647;exitY=0.985;exitDx=0;exitDy=0;exitPerimeter=0;" edge="1" parent="1" source="LkdOfVyFh3dFV3emHNXY-2">
          <mxGeometry width="100" relative="1" as="geometry">
            <mxPoint x="965" y="3517" as="sourcePoint" />
            <mxPoint x="971" y="3634" as="targetPoint" />
            <Array as="points" />
          </mxGeometry>
        </mxCell>
        <mxCell id="LkdOfVyFh3dFV3emHNXY-29" value="" style="endArrow=none;html=1;rounded=0;edgeStyle=orthogonalEdgeStyle;" edge="1" parent="1" source="LkdOfVyFh3dFV3emHNXY-4" target="LkdOfVyFh3dFV3emHNXY-20">
          <mxGeometry width="50" height="50" relative="1" as="geometry">
            <mxPoint x="885" y="3650" as="sourcePoint" />
            <mxPoint x="897" y="3542" as="targetPoint" />
            <Array as="points">
              <mxPoint x="944" y="3594" />
              <mxPoint x="780" y="3594" />
            </Array>
          </mxGeometry>
        </mxCell>
        <mxCell id="LkdOfVyFh3dFV3emHNXY-30" value="" style="endArrow=none;html=1;rounded=0;edgeStyle=orthogonalEdgeStyle;" edge="1" parent="1" target="LkdOfVyFh3dFV3emHNXY-2">
          <mxGeometry width="50" height="50" relative="1" as="geometry">
            <mxPoint x="784" y="3637" as="sourcePoint" />
            <mxPoint x="863" y="3552" as="targetPoint" />
            <Array as="points">
              <mxPoint x="952" y="3604" />
            </Array>
          </mxGeometry>
        </mxCell>
        <mxCell id="LkdOfVyFh3dFV3emHNXY-32" value="" style="endArrow=none;html=1;rounded=0;exitX=1;exitY=0.423;exitDx=0;exitDy=0;exitPerimeter=0;" edge="1" parent="1" source="LkdOfVyFh3dFV3emHNXY-13" target="LkdOfVyFh3dFV3emHNXY-5">
          <mxGeometry width="50" height="50" relative="1" as="geometry">
            <mxPoint x="487" y="3707" as="sourcePoint" />
            <mxPoint x="537" y="3657" as="targetPoint" />
          </mxGeometry>
        </mxCell>
        <mxCell id="LkdOfVyFh3dFV3emHNXY-33" value="" style="endArrow=none;html=1;rounded=0;entryX=0.228;entryY=0.833;entryDx=0;entryDy=0;entryPerimeter=0;" edge="1" parent="1" source="LkdOfVyFh3dFV3emHNXY-4" target="LkdOfVyFh3dFV3emHNXY-11">
          <mxGeometry width="50" height="50" relative="1" as="geometry">
            <mxPoint x="1063" y="3636" as="sourcePoint" />
            <mxPoint x="1113" y="3586" as="targetPoint" />
          </mxGeometry>
        </mxCell>
        <mxCell id="LkdOfVyFh3dFV3emHNXY-34" value="" style="endArrow=none;html=1;rounded=0;exitX=1;exitY=0.423;exitDx=0;exitDy=0;exitPerimeter=0;" edge="1" parent="1">
          <mxGeometry width="50" height="50" relative="1" as="geometry">
            <mxPoint x="996.25" y="3677.5" as="sourcePoint" />
            <mxPoint x="1278.25" y="3681.5" as="targetPoint" />
          </mxGeometry>
        </mxCell>
        <mxCell id="LkdOfVyFh3dFV3emHNXY-36" value="" style="verticalLabelPosition=top;aspect=fixed;html=1;verticalAlign=bottom;strokeColor=none;shape=mxgraph.citrix.cache_server;fillColor=#66B2FF;gradientColor=#0066CC;fontSize=14;labelPosition=center;align=center;" vertex="1" parent="1">
          <mxGeometry x="1280" y="3633.75" width="89.02" height="122.25" as="geometry" />
        </mxCell>
        <mxCell id="LkdOfVyFh3dFV3emHNXY-39" value="" style="endArrow=none;html=1;rounded=0;exitX=1;exitY=0.5;exitDx=0;exitDy=0;exitPerimeter=0;entryX=0;entryY=0.5;entryDx=0;entryDy=0;entryPerimeter=0;shape=link;" edge="1" parent="1" source="LkdOfVyFh3dFV3emHNXY-40" target="LkdOfVyFh3dFV3emHNXY-4">
          <mxGeometry width="50" height="50" relative="1" as="geometry">
            <mxPoint x="1042" y="3705" as="sourcePoint" />
            <mxPoint x="1092" y="3655" as="targetPoint" />
          </mxGeometry>
        </mxCell>
        <mxCell id="LkdOfVyFh3dFV3emHNXY-46" value="" style="endArrow=none;html=1;rounded=0;exitX=1;exitY=0.5;exitDx=0;exitDy=0;exitPerimeter=0;entryX=0;entryY=0.5;entryDx=0;entryDy=0;entryPerimeter=0;shape=link;" edge="1" parent="1" source="LkdOfVyFh3dFV3emHNXY-5" target="LkdOfVyFh3dFV3emHNXY-40">
          <mxGeometry width="50" height="50" relative="1" as="geometry">
            <mxPoint x="807" y="3680" as="sourcePoint" />
            <mxPoint x="911" y="3680" as="targetPoint" />
          </mxGeometry>
        </mxCell>
        <mxCell id="LkdOfVyFh3dFV3emHNXY-40" value="" style="ellipse;whiteSpace=wrap;html=1;" vertex="1" parent="1">
          <mxGeometry x="847" y="3657" width="21" height="41" as="geometry" />
        </mxCell>
        <mxCell id="LkdOfVyFh3dFV3emHNXY-47" value="" style="endArrow=none;html=1;rounded=0;edgeStyle=orthogonalEdgeStyle;entryX=0.5;entryY=1;entryDx=0;entryDy=0;entryPerimeter=0;exitX=1.052;exitY=0.924;exitDx=0;exitDy=0;exitPerimeter=0;" edge="1" parent="1" source="LkdOfVyFh3dFV3emHNXY-13" target="LkdOfVyFh3dFV3emHNXY-4">
          <mxGeometry width="50" height="50" relative="1" as="geometry">
            <mxPoint x="530" y="3823" as="sourcePoint" />
            <mxPoint x="580" y="3773" as="targetPoint" />
          </mxGeometry>
        </mxCell>
        <mxCell id="LkdOfVyFh3dFV3emHNXY-49" value="" style="endArrow=none;html=1;rounded=0;edgeStyle=orthogonalEdgeStyle;exitX=0.5;exitY=1;exitDx=0;exitDy=0;exitPerimeter=0;entryX=0.284;entryY=0.877;entryDx=0;entryDy=0;entryPerimeter=0;" edge="1" parent="1" source="LkdOfVyFh3dFV3emHNXY-5" target="LkdOfVyFh3dFV3emHNXY-36">
          <mxGeometry width="50" height="50" relative="1" as="geometry">
            <mxPoint x="750" y="3756" as="sourcePoint" />
            <mxPoint x="1172" y="3741" as="targetPoint" />
            <Array as="points">
              <mxPoint x="763" y="3741" />
            </Array>
          </mxGeometry>
        </mxCell>
        <mxCell id="LkdOfVyFh3dFV3emHNXY-50" value="" style="verticalLabelPosition=bottom;aspect=fixed;html=1;verticalAlign=top;strokeColor=none;shape=mxgraph.citrix.firewall;fillColor=#66B2FF;gradientColor=#0066CC;fontSize=14;" vertex="1" parent="1">
          <mxGeometry x="735" y="3783" width="75" height="93" as="geometry" />
        </mxCell>
        <mxCell id="LkdOfVyFh3dFV3emHNXY-51" value="" style="verticalLabelPosition=bottom;aspect=fixed;html=1;verticalAlign=top;strokeColor=none;shape=mxgraph.citrix.firewall;fillColor=#66B2FF;gradientColor=#0066CC;fontSize=14;" vertex="1" parent="1">
          <mxGeometry x="917" y="3792" width="75" height="93" as="geometry" />
        </mxCell>
        <mxCell id="LkdOfVyFh3dFV3emHNXY-52" value="" style="verticalLabelPosition=bottom;aspect=fixed;html=1;verticalAlign=top;strokeColor=none;shape=mxgraph.citrix.chassis;fillColor=#66B2FF;gradientColor=#0066CC;fontSize=14;" vertex="1" parent="1">
          <mxGeometry x="1699" y="3559" width="137.5" height="177.5" as="geometry" />
        </mxCell>
        <mxCell id="LkdOfVyFh3dFV3emHNXY-53" value="" style="endArrow=none;dashed=1;html=1;rounded=0;entryX=-0.015;entryY=0.455;entryDx=0;entryDy=0;entryPerimeter=0;dashPattern=1 1;strokeWidth=3;" edge="1" parent="1" target="LkdOfVyFh3dFV3emHNXY-50">
          <mxGeometry width="50" height="50" relative="1" as="geometry">
            <mxPoint x="271" y="3830" as="sourcePoint" />
            <mxPoint x="352" y="3836" as="targetPoint" />
          </mxGeometry>
        </mxCell>
        <mxCell id="LkdOfVyFh3dFV3emHNXY-54" value="" style="endArrow=none;dashed=1;html=1;rounded=0;dashPattern=1 1;strokeWidth=3;" edge="1" parent="1">
          <mxGeometry width="50" height="50" relative="1" as="geometry">
            <mxPoint x="994.75" y="3829" as="sourcePoint" />
            <mxPoint x="1950.25" y="3818" as="targetPoint" />
          </mxGeometry>
        </mxCell>
        <mxCell id="LkdOfVyFh3dFV3emHNXY-55" value="" style="endArrow=none;html=1;rounded=0;entryX=0.92;entryY=0.91;entryDx=0;entryDy=0;entryPerimeter=0;exitX=0.07;exitY=0.011;exitDx=0;exitDy=0;exitPerimeter=0;" edge="1" parent="1" source="LkdOfVyFh3dFV3emHNXY-51" target="LkdOfVyFh3dFV3emHNXY-5">
          <mxGeometry width="50" height="50" relative="1" as="geometry">
            <mxPoint x="837" y="3820" as="sourcePoint" />
            <mxPoint x="887" y="3770" as="targetPoint" />
          </mxGeometry>
        </mxCell>
        <mxCell id="LkdOfVyFh3dFV3emHNXY-56" value="" style="endArrow=none;html=1;rounded=0;exitX=0.88;exitY=0.224;exitDx=0;exitDy=0;exitPerimeter=0;" edge="1" parent="1" source="LkdOfVyFh3dFV3emHNXY-50" target="LkdOfVyFh3dFV3emHNXY-4">
          <mxGeometry width="50" height="50" relative="1" as="geometry">
            <mxPoint x="800" y="3794" as="sourcePoint" />
            <mxPoint x="860" y="3756" as="targetPoint" />
          </mxGeometry>
        </mxCell>
        <mxCell id="LkdOfVyFh3dFV3emHNXY-57" value="" style="verticalLabelPosition=top;aspect=fixed;html=1;verticalAlign=bottom;strokeColor=none;shape=mxgraph.citrix.cache_server;fillColor=#66B2FF;gradientColor=#0066CC;fontSize=14;labelPosition=center;align=center;" vertex="1" parent="1">
          <mxGeometry x="326" y="3907" width="89.02" height="122.25" as="geometry" />
        </mxCell>
        <mxCell id="LkdOfVyFh3dFV3emHNXY-58" value="" style="verticalLabelPosition=top;aspect=fixed;html=1;verticalAlign=bottom;strokeColor=none;shape=mxgraph.citrix.cache_server;fillColor=#66B2FF;gradientColor=#0066CC;fontSize=14;labelPosition=center;align=center;" vertex="1" parent="1">
          <mxGeometry x="1315" y="3910" width="89.02" height="122.25" as="geometry" />
        </mxCell>
        <mxCell id="LkdOfVyFh3dFV3emHNXY-59" value="" style="endArrow=none;html=1;rounded=0;entryX=0.92;entryY=0.91;entryDx=0;entryDy=0;entryPerimeter=0;exitX=0.16;exitY=0.23;exitDx=0;exitDy=0;exitPerimeter=0;" edge="1" parent="1" source="LkdOfVyFh3dFV3emHNXY-7">
          <mxGeometry width="50" height="50" relative="1" as="geometry">
            <mxPoint x="929" y="3955" as="sourcePoint" />
            <mxPoint x="807.25" y="3876" as="targetPoint" />
          </mxGeometry>
        </mxCell>
        <mxCell id="LkdOfVyFh3dFV3emHNXY-60" value="" style="endArrow=none;html=1;rounded=0;entryX=0.053;entryY=0.865;entryDx=0;entryDy=0;entryPerimeter=0;exitX=1;exitY=0;exitDx=0;exitDy=0;exitPerimeter=0;" edge="1" parent="1" source="LkdOfVyFh3dFV3emHNXY-6" target="LkdOfVyFh3dFV3emHNXY-51">
          <mxGeometry width="50" height="50" relative="1" as="geometry">
            <mxPoint x="937" y="3978" as="sourcePoint" />
            <mxPoint x="817.25" y="3886" as="targetPoint" />
          </mxGeometry>
        </mxCell>
        <mxCell id="LkdOfVyFh3dFV3emHNXY-61" value="" style="endArrow=none;html=1;rounded=0;entryX=0.575;entryY=0.931;entryDx=0;entryDy=0;entryPerimeter=0;exitX=0.647;exitY=-0.1;exitDx=0;exitDy=0;exitPerimeter=0;" edge="1" parent="1" source="LkdOfVyFh3dFV3emHNXY-6" target="LkdOfVyFh3dFV3emHNXY-50">
          <mxGeometry width="50" height="50" relative="1" as="geometry">
            <mxPoint x="665" y="3943" as="sourcePoint" />
            <mxPoint x="715" y="3893" as="targetPoint" />
          </mxGeometry>
        </mxCell>
        <mxCell id="LkdOfVyFh3dFV3emHNXY-62" value="" style="endArrow=none;html=1;rounded=0;exitX=0.647;exitY=-0.1;exitDx=0;exitDy=0;exitPerimeter=0;" edge="1" parent="1">
          <mxGeometry width="50" height="50" relative="1" as="geometry">
            <mxPoint x="964.9999999999999" y="3961" as="sourcePoint" />
            <mxPoint x="965.43" y="3881" as="targetPoint" />
          </mxGeometry>
        </mxCell>
        <mxCell id="LkdOfVyFh3dFV3emHNXY-63" value="" style="endArrow=none;html=1;rounded=0;entryX=0.16;entryY=0.23;entryDx=0;entryDy=0;entryPerimeter=0;exitX=0.939;exitY=0.559;exitDx=0;exitDy=0;exitPerimeter=0;" edge="1" parent="1" source="LkdOfVyFh3dFV3emHNXY-57" target="LkdOfVyFh3dFV3emHNXY-6">
          <mxGeometry width="50" height="50" relative="1" as="geometry">
            <mxPoint x="413" y="3966" as="sourcePoint" />
            <mxPoint x="463" y="3916" as="targetPoint" />
          </mxGeometry>
        </mxCell>
        <mxCell id="LkdOfVyFh3dFV3emHNXY-64" value="" style="endArrow=none;html=1;rounded=0;exitX=0.939;exitY=0.559;exitDx=0;exitDy=0;exitPerimeter=0;" edge="1" parent="1">
          <mxGeometry width="50" height="50" relative="1" as="geometry">
            <mxPoint x="1014" y="3979.5" as="sourcePoint" />
            <mxPoint x="1314" y="3980" as="targetPoint" />
          </mxGeometry>
        </mxCell>
        <mxCell id="LkdOfVyFh3dFV3emHNXY-65" value="" style="verticalLabelPosition=bottom;aspect=fixed;html=1;verticalAlign=top;strokeColor=none;shape=mxgraph.citrix.firewall;fillColor=#66B2FF;gradientColor=#0066CC;fontSize=14;" vertex="1" parent="1">
          <mxGeometry x="830" y="4038" width="75" height="93" as="geometry" />
        </mxCell>
        <mxCell id="LkdOfVyFh3dFV3emHNXY-66" value="" style="endArrow=none;html=1;rounded=0;edgeStyle=orthogonalEdgeStyle;entryX=0.01;entryY=0.528;entryDx=0;entryDy=0;entryPerimeter=0;exitX=0.5;exitY=0.98;exitDx=0;exitDy=0;exitPerimeter=0;" edge="1" parent="1">
          <mxGeometry width="50" height="50" relative="1" as="geometry">
            <mxPoint x="774.07" y="4016.000000000001" as="sourcePoint" />
            <mxPoint x="841.3200000000005" y="4098.104" as="targetPoint" />
            <Array as="points">
              <mxPoint x="773.57" y="4098" />
            </Array>
          </mxGeometry>
        </mxCell>
        <mxCell id="LkdOfVyFh3dFV3emHNXY-67" value="" style="endArrow=none;html=1;rounded=0;edgeStyle=orthogonalEdgeStyle;entryX=0.5;entryY=0.98;entryDx=0;entryDy=0;entryPerimeter=0;exitX=0.5;exitY=0.98;exitDx=0;exitDy=0;exitPerimeter=0;" edge="1" parent="1" target="LkdOfVyFh3dFV3emHNXY-7">
          <mxGeometry width="50" height="50" relative="1" as="geometry">
            <mxPoint x="905.4300000000001" y="4098" as="sourcePoint" />
            <mxPoint x="972.4300000000001" y="4180" as="targetPoint" />
          </mxGeometry>
        </mxCell>
        <mxCell id="LkdOfVyFh3dFV3emHNXY-68" value="&lt;font style=&quot;vertical-align: inherit;&quot;&gt;&lt;font style=&quot;vertical-align: inherit; font-size: 20px;&quot;&gt;&lt;b&gt;&lt;font style=&quot;vertical-align: inherit;&quot;&gt;&lt;font style=&quot;vertical-align: inherit;&quot;&gt;&lt;font style=&quot;vertical-align: inherit;&quot;&gt;&lt;font style=&quot;vertical-align: inherit;&quot;&gt;防火墙&lt;/font&gt;&lt;/font&gt;&lt;/font&gt;&lt;/font&gt;&lt;/b&gt;&lt;/font&gt;&lt;/font&gt;" style="text;html=1;strokeColor=none;fillColor=none;align=center;verticalAlign=middle;whiteSpace=wrap;rounded=0;" vertex="1" parent="1">
          <mxGeometry x="659" y="3825" width="76" height="37" as="geometry" />
        </mxCell>
        <mxCell id="LkdOfVyFh3dFV3emHNXY-69" value="&lt;font style=&quot;vertical-align: inherit;&quot;&gt;&lt;font style=&quot;vertical-align: inherit; font-size: 20px;&quot;&gt;&lt;b&gt;&lt;font style=&quot;vertical-align: inherit;&quot;&gt;&lt;font style=&quot;vertical-align: inherit;&quot;&gt;&lt;font style=&quot;vertical-align: inherit;&quot;&gt;&lt;font style=&quot;vertical-align: inherit;&quot;&gt;防火墙&lt;/font&gt;&lt;/font&gt;&lt;/font&gt;&lt;/font&gt;&lt;/b&gt;&lt;/font&gt;&lt;/font&gt;" style="text;html=1;strokeColor=none;fillColor=none;align=center;verticalAlign=middle;whiteSpace=wrap;rounded=0;" vertex="1" parent="1">
          <mxGeometry x="754" y="4106" width="76" height="37" as="geometry" />
        </mxCell>
        <mxCell id="LkdOfVyFh3dFV3emHNXY-70" value="" style="image;html=1;image=img/lib/clip_art/networking/Router_Icon_128x128.png" vertex="1" parent="1">
          <mxGeometry x="834" y="4204" width="80" height="80" as="geometry" />
        </mxCell>
        <mxCell id="LkdOfVyFh3dFV3emHNXY-71" value="" style="endArrow=none;html=1;rounded=0;" edge="1" parent="1">
          <mxGeometry width="50" height="50" relative="1" as="geometry">
            <mxPoint x="867" y="4212" as="sourcePoint" />
            <mxPoint x="867.2199999999999" y="4134" as="targetPoint" />
          </mxGeometry>
        </mxCell>
        <mxCell id="LkdOfVyFh3dFV3emHNXY-72" value="" style="endArrow=none;dashed=1;html=1;rounded=0;entryX=-0.015;entryY=0.455;entryDx=0;entryDy=0;entryPerimeter=0;dashPattern=1 1;strokeWidth=3;" edge="1" parent="1">
          <mxGeometry width="50" height="50" relative="1" as="geometry">
            <mxPoint x="274" y="4116" as="sourcePoint" />
            <mxPoint x="829" y="4111" as="targetPoint" />
          </mxGeometry>
        </mxCell>
        <mxCell id="LkdOfVyFh3dFV3emHNXY-73" value="" style="endArrow=none;dashed=1;html=1;rounded=0;dashPattern=1 1;strokeWidth=3;" edge="1" parent="1">
          <mxGeometry width="50" height="50" relative="1" as="geometry">
            <mxPoint x="905" y="4111" as="sourcePoint" />
            <mxPoint x="1968" y="4100" as="targetPoint" />
          </mxGeometry>
        </mxCell>
        <mxCell id="LkdOfVyFh3dFV3emHNXY-76" value="" style="group" vertex="1" connectable="0" parent="1">
          <mxGeometry x="1687.54" y="3933" width="132.92000000000007" height="110" as="geometry" />
        </mxCell>
        <mxCell id="LkdOfVyFh3dFV3emHNXY-74" value="" style="image;points=[];aspect=fixed;html=1;align=center;shadow=0;dashed=0;image=img/lib/allied_telesis/switch/Switch_24_port_L2.svg;" vertex="1" parent="LkdOfVyFh3dFV3emHNXY-76">
          <mxGeometry x="6" y="23" width="126.92" height="87" as="geometry" />
        </mxCell>
        <mxCell id="LkdOfVyFh3dFV3emHNXY-75" value="" style="image;points=[];aspect=fixed;html=1;align=center;shadow=0;dashed=0;image=img/lib/allied_telesis/switch/Switch_24_port_L2.svg;" vertex="1" parent="LkdOfVyFh3dFV3emHNXY-76">
          <mxGeometry width="126.92" height="87" as="geometry" />
        </mxCell>
        <mxCell id="LkdOfVyFh3dFV3emHNXY-77" value="&lt;font style=&quot;vertical-align: inherit;&quot;&gt;&lt;font style=&quot;vertical-align: inherit;&quot;&gt;&lt;b style=&quot;&quot;&gt;&lt;font style=&quot;vertical-align: inherit;&quot;&gt;&lt;font style=&quot;vertical-align: inherit;&quot;&gt;&lt;font style=&quot;vertical-align: inherit;&quot;&gt;&lt;font style=&quot;vertical-align: inherit;&quot;&gt;&lt;font style=&quot;vertical-align: inherit;&quot;&gt;&lt;font color=&quot;#ff0000&quot; style=&quot;vertical-align: inherit; font-size: 26px;&quot;&gt;企业内部网&lt;/font&gt;&lt;/font&gt;&lt;/font&gt;&lt;/font&gt;&lt;/font&gt;&lt;/font&gt;&lt;/b&gt;&lt;/font&gt;&lt;/font&gt;" style="text;html=1;strokeColor=none;fillColor=none;align=center;verticalAlign=middle;whiteSpace=wrap;rounded=0;" vertex="1" parent="1">
          <mxGeometry x="1637" y="3266" width="202" height="94" as="geometry" />
        </mxCell>
        <mxCell id="LkdOfVyFh3dFV3emHNXY-78" value="" style="fontColor=#0066CC;verticalAlign=top;verticalLabelPosition=bottom;labelPosition=center;align=center;html=1;outlineConnect=0;fillColor=#CCCCCC;strokeColor=#6881B3;gradientColor=none;gradientDirection=north;strokeWidth=2;shape=mxgraph.networks.router;" vertex="1" parent="1">
          <mxGeometry x="807.25" y="4323" width="175" height="52" as="geometry" />
        </mxCell>
        <mxCell id="LkdOfVyFh3dFV3emHNXY-79" value="&lt;font style=&quot;vertical-align: inherit;&quot;&gt;&lt;font style=&quot;vertical-align: inherit; font-size: 20px;&quot;&gt;&lt;b&gt;&lt;font style=&quot;vertical-align: inherit;&quot;&gt;&lt;font style=&quot;vertical-align: inherit;&quot;&gt;&lt;font style=&quot;vertical-align: inherit;&quot;&gt;&lt;font style=&quot;vertical-align: inherit;&quot;&gt;路由器&lt;/font&gt;&lt;/font&gt;&lt;/font&gt;&lt;/font&gt;&lt;/b&gt;&lt;/font&gt;&lt;/font&gt;" style="text;html=1;strokeColor=none;fillColor=none;align=center;verticalAlign=middle;whiteSpace=wrap;rounded=0;" vertex="1" parent="1">
          <mxGeometry x="747" y="4204" width="76" height="37" as="geometry" />
        </mxCell>
        <mxCell id="LkdOfVyFh3dFV3emHNXY-80" value="&lt;font style=&quot;font-size: 17px;&quot;&gt;因特网&lt;/font&gt;" style="ellipse;shape=cloud;whiteSpace=wrap;html=1;fillColor=#FFFFCC;strokeColor=#d6b656;gradientColor=#ffd966;" vertex="1" parent="1">
          <mxGeometry x="1012" y="4209" width="171" height="103" as="geometry" />
        </mxCell>
        <mxCell id="LkdOfVyFh3dFV3emHNXY-81" value="" style="verticalAlign=top;verticalLabelPosition=bottom;labelPosition=center;align=center;html=1;outlineConnect=0;fillColor=#fff2cc;strokeColor=#d6b656;gradientDirection=north;strokeWidth=2;shape=mxgraph.networks.comm_link;rotation=-75;" vertex="1" parent="1">
          <mxGeometry x="953" y="4197" width="27" height="109" as="geometry" />
        </mxCell>
        <mxCell id="LkdOfVyFh3dFV3emHNXY-82" value="&lt;font style=&quot;vertical-align: inherit;&quot;&gt;&lt;font style=&quot;vertical-align: inherit;&quot;&gt;&lt;b style=&quot;&quot;&gt;&lt;font style=&quot;vertical-align: inherit;&quot;&gt;&lt;font style=&quot;vertical-align: inherit;&quot;&gt;&lt;font style=&quot;vertical-align: inherit;&quot;&gt;&lt;font style=&quot;vertical-align: inherit;&quot;&gt;&lt;font style=&quot;vertical-align: inherit;&quot;&gt;&lt;font color=&quot;#ff0000&quot; style=&quot;vertical-align: inherit; font-size: 26px;&quot;&gt;外部访问子网&lt;/font&gt;&lt;/font&gt;&lt;/font&gt;&lt;/font&gt;&lt;/font&gt;&lt;/font&gt;&lt;/b&gt;&lt;/font&gt;&lt;/font&gt;" style="text;html=1;strokeColor=none;fillColor=none;align=center;verticalAlign=middle;whiteSpace=wrap;rounded=0;" vertex="1" parent="1">
          <mxGeometry x="1653" y="3832" width="202" height="94" as="geometry" />
        </mxCell>
        <mxCell id="LkdOfVyFh3dFV3emHNXY-83" value="&lt;font color=&quot;#ff0000&quot;&gt;&lt;span style=&quot;font-size: 26px;&quot;&gt;&lt;b&gt;因特网&lt;/b&gt;&lt;/span&gt;&lt;/font&gt;" style="text;html=1;strokeColor=none;fillColor=none;align=center;verticalAlign=middle;whiteSpace=wrap;rounded=0;" vertex="1" parent="1">
          <mxGeometry x="1653" y="4190" width="202" height="94" as="geometry" />
        </mxCell>
        <mxCell id="LkdOfVyFh3dFV3emHNXY-85" value="&lt;div data-t=&quot;flow&quot; data-processon-v=&quot;{&amp;quot;list&amp;quot;:[{&amp;quot;textBlock&amp;quot;:[{&amp;quot;position&amp;quot;:{&amp;quot;w&amp;quot;:&amp;quot;w+40&amp;quot;,&amp;quot;h&amp;quot;:&amp;quot;30&amp;quot;,&amp;quot;y&amp;quot;:&amp;quot;h&amp;quot;,&amp;quot;x&amp;quot;:&amp;quot;-20&amp;quot;},&amp;quot;text&amp;quot;:&amp;quot;&amp;quot;}],&amp;quot;lineStyle&amp;quot;:{&amp;quot;lineWidth&amp;quot;:0},&amp;quot;link&amp;quot;:&amp;quot;&amp;quot;,&amp;quot;children&amp;quot;:[],&amp;quot;parent&amp;quot;:&amp;quot;&amp;quot;,&amp;quot;attribute&amp;quot;:{&amp;quot;linkable&amp;quot;:true,&amp;quot;visible&amp;quot;:true,&amp;quot;container&amp;quot;:false,&amp;quot;rotatable&amp;quot;:true,&amp;quot;markerOffset&amp;quot;:5,&amp;quot;collapsable&amp;quot;:false,&amp;quot;collapsed&amp;quot;:false},&amp;quot;fontStyle&amp;quot;:{},&amp;quot;resizeDir&amp;quot;:[&amp;quot;tl&amp;quot;,&amp;quot;tr&amp;quot;,&amp;quot;br&amp;quot;,&amp;quot;bl&amp;quot;],&amp;quot;dataAttributes&amp;quot;:[],&amp;quot;shapeStyle&amp;quot;:{&amp;quot;alpha&amp;quot;:1},&amp;quot;id&amp;quot;:&amp;quot;165b25e8c97a07&amp;quot;,&amp;quot;anchors&amp;quot;:[{&amp;quot;y&amp;quot;:&amp;quot;0&amp;quot;,&amp;quot;x&amp;quot;:&amp;quot;w/2&amp;quot;},{&amp;quot;y&amp;quot;:&amp;quot;h&amp;quot;,&amp;quot;x&amp;quot;:&amp;quot;w/2&amp;quot;},{&amp;quot;y&amp;quot;:&amp;quot;h/2&amp;quot;,&amp;quot;x&amp;quot;:&amp;quot;0&amp;quot;},{&amp;quot;y&amp;quot;:&amp;quot;h/2&amp;quot;,&amp;quot;x&amp;quot;:&amp;quot;w&amp;quot;}],&amp;quot;title&amp;quot;:&amp;quot;Network Cloud&amp;quot;,&amp;quot;category&amp;quot;:&amp;quot;network&amp;quot;,&amp;quot;name&amp;quot;:&amp;quot;network cloud&amp;quot;,&amp;quot;path&amp;quot;:[{&amp;quot;lineStyle&amp;quot;:{&amp;quot;lineWidth&amp;quot;:0},&amp;quot;fillStyle&amp;quot;:{&amp;quot;fileId&amp;quot;:&amp;quot;/assets/images/designer/network/cloud.svg&amp;quot;,&amp;quot;display&amp;quot;:&amp;quot;stretch&amp;quot;,&amp;quot;type&amp;quot;:&amp;quot;image&amp;quot;},&amp;quot;actions&amp;quot;:[{&amp;quot;action&amp;quot;:&amp;quot;move&amp;quot;,&amp;quot;y&amp;quot;:&amp;quot;0&amp;quot;,&amp;quot;x&amp;quot;:&amp;quot;0&amp;quot;},{&amp;quot;action&amp;quot;:&amp;quot;line&amp;quot;,&amp;quot;y&amp;quot;:&amp;quot;0&amp;quot;,&amp;quot;x&amp;quot;:&amp;quot;w&amp;quot;},{&amp;quot;action&amp;quot;:&amp;quot;line&amp;quot;,&amp;quot;y&amp;quot;:&amp;quot;h&amp;quot;,&amp;quot;x&amp;quot;:&amp;quot;w&amp;quot;},{&amp;quot;action&amp;quot;:&amp;quot;line&amp;quot;,&amp;quot;y&amp;quot;:&amp;quot;h&amp;quot;,&amp;quot;x&amp;quot;:&amp;quot;0&amp;quot;},{&amp;quot;action&amp;quot;:&amp;quot;close&amp;quot;}]}],&amp;quot;fillStyle&amp;quot;:{},&amp;quot;locked&amp;quot;:false,&amp;quot;group&amp;quot;:&amp;quot;&amp;quot;,&amp;quot;props&amp;quot;:{&amp;quot;w&amp;quot;:106,&amp;quot;angle&amp;quot;:0,&amp;quot;h&amp;quot;:58,&amp;quot;y&amp;quot;:87,&amp;quot;zindex&amp;quot;:1,&amp;quot;x&amp;quot;:394}},{&amp;quot;textBlock&amp;quot;:[{&amp;quot;position&amp;quot;:{&amp;quot;w&amp;quot;:&amp;quot;w+40&amp;quot;,&amp;quot;y&amp;quot;:&amp;quot;h&amp;quot;,&amp;quot;h&amp;quot;:&amp;quot;30&amp;quot;,&amp;quot;x&amp;quot;:&amp;quot;-20&amp;quot;},&amp;quot;text&amp;quot;:&amp;quot;&amp;quot;}],&amp;quot;lineStyle&amp;quot;:{&amp;quot;lineWidth&amp;quot;:0},&amp;quot;link&amp;quot;:&amp;quot;&amp;quot;,&amp;quot;children&amp;quot;:[],&amp;quot;parent&amp;quot;:&amp;quot;&amp;quot;,&amp;quot;attribute&amp;quot;:{&amp;quot;linkable&amp;quot;:true,&amp;quot;visible&amp;quot;:true,&amp;quot;container&amp;quot;:false,&amp;quot;rotatable&amp;quot;:true,&amp;quot;markerOffset&amp;quot;:5,&amp;quot;collapsable&amp;quot;:false,&amp;quot;collapsed&amp;quot;:false},&amp;quot;fontStyle&amp;quot;:{},&amp;quot;resizeDir&amp;quot;:[&amp;quot;tl&amp;quot;,&amp;quot;tr&amp;quot;,&amp;quot;br&amp;quot;,&amp;quot;bl&amp;quot;],&amp;quot;dataAttributes&amp;quot;:[],&amp;quot;shapeStyle&amp;quot;:{&amp;quot;alpha&amp;quot;:1},&amp;quot;id&amp;quot;:&amp;quot;165b25e9f45c98&amp;quot;,&amp;quot;anchors&amp;quot;:[{&amp;quot;y&amp;quot;:&amp;quot;0&amp;quot;,&amp;quot;x&amp;quot;:&amp;quot;w/2&amp;quot;},{&amp;quot;y&amp;quot;:&amp;quot;h&amp;quot;,&amp;quot;x&amp;quot;:&amp;quot;w/2&amp;quot;},{&amp;quot;y&amp;quot;:&amp;quot;h/2&amp;quot;,&amp;quot;x&amp;quot;:&amp;quot;0&amp;quot;},{&amp;quot;y&amp;quot;:&amp;quot;h/2&amp;quot;,&amp;quot;x&amp;quot;:&amp;quot;w&amp;quot;}],&amp;quot;category&amp;quot;:&amp;quot;network&amp;quot;,&amp;quot;title&amp;quot;:&amp;quot;Firewall&amp;quot;,&amp;quot;name&amp;quot;:&amp;quot;firewall&amp;quot;,&amp;quot;fillStyle&amp;quot;:{},&amp;quot;path&amp;quot;:[{&amp;quot;lineStyle&amp;quot;:{&amp;quot;lineWidth&amp;quot;:0},&amp;quot;fillStyle&amp;quot;:{&amp;quot;fileId&amp;quot;:&amp;quot;/assets/images/designer/network/firewall.svg&amp;quot;,&amp;quot;display&amp;quot;:&amp;quot;stretch&amp;quot;,&amp;quot;type&amp;quot;:&amp;quot;image&amp;quot;},&amp;quot;actions&amp;quot;:[{&amp;quot;action&amp;quot;:&amp;quot;move&amp;quot;,&amp;quot;y&amp;quot;:&amp;quot;0&amp;quot;,&amp;quot;x&amp;quot;:&amp;quot;0&amp;quot;},{&amp;quot;action&amp;quot;:&amp;quot;line&amp;quot;,&amp;quot;y&amp;quot;:&amp;quot;0&amp;quot;,&amp;quot;x&amp;quot;:&amp;quot;w&amp;quot;},{&amp;quot;action&amp;quot;:&amp;quot;line&amp;quot;,&amp;quot;y&amp;quot;:&amp;quot;h&amp;quot;,&amp;quot;x&amp;quot;:&amp;quot;w&amp;quot;},{&amp;quot;action&amp;quot;:&amp;quot;line&amp;quot;,&amp;quot;y&amp;quot;:&amp;quot;h&amp;quot;,&amp;quot;x&amp;quot;:&amp;quot;0&amp;quot;},{&amp;quot;action&amp;quot;:&amp;quot;close&amp;quot;}]}],&amp;quot;locked&amp;quot;:false,&amp;quot;group&amp;quot;:&amp;quot;&amp;quot;,&amp;quot;props&amp;quot;:{&amp;quot;w&amp;quot;:75,&amp;quot;y&amp;quot;:194.5,&amp;quot;h&amp;quot;:53,&amp;quot;angle&amp;quot;:0,&amp;quot;x&amp;quot;:409.5,&amp;quot;zindex&amp;quot;:2}},{&amp;quot;textBlock&amp;quot;:[{&amp;quot;position&amp;quot;:{&amp;quot;w&amp;quot;:&amp;quot;w+40&amp;quot;,&amp;quot;h&amp;quot;:&amp;quot;30&amp;quot;,&amp;quot;y&amp;quot;:&amp;quot;h&amp;quot;,&amp;quot;x&amp;quot;:&amp;quot;-20&amp;quot;},&amp;quot;text&amp;quot;:&amp;quot;PC&amp;quot;}],&amp;quot;lineStyle&amp;quot;:{&amp;quot;lineWidth&amp;quot;:0},&amp;quot;link&amp;quot;:&amp;quot;&amp;quot;,&amp;quot;children&amp;quot;:[],&amp;quot;parent&amp;quot;:&amp;quot;&amp;quot;,&amp;quot;attribute&amp;quot;:{&amp;quot;linkable&amp;quot;:true,&amp;quot;visible&amp;quot;:true,&amp;quot;container&amp;quot;:false,&amp;quot;rotatable&amp;quot;:true,&amp;quot;markerOffset&amp;quot;:5,&amp;quot;collapsable&amp;quot;:false,&amp;quot;collapsed&amp;quot;:false},&amp;quot;fontStyle&amp;quot;:{},&amp;quot;resizeDir&amp;quot;:[&amp;quot;tl&amp;quot;,&amp;quot;tr&amp;quot;,&amp;quot;br&amp;quot;,&amp;quot;bl&amp;quot;],&amp;quot;dataAttributes&amp;quot;:[],&amp;quot;shapeStyle&amp;quot;:{&amp;quot;alpha&amp;quot;:1},&amp;quot;id&amp;quot;:&amp;quot;165b25ec28fb8b&amp;quot;,&amp;quot;anchors&amp;quot;:[{&amp;quot;y&amp;quot;:&amp;quot;0&amp;quot;,&amp;quot;x&amp;quot;:&amp;quot;w/2&amp;quot;},{&amp;quot;y&amp;quot;:&amp;quot;h&amp;quot;,&amp;quot;x&amp;quot;:&amp;quot;w/2&amp;quot;},{&amp;quot;y&amp;quot;:&amp;quot;h/2&amp;quot;,&amp;quot;x&amp;quot;:&amp;quot;0&amp;quot;},{&amp;quot;y&amp;quot;:&amp;quot;h/2&amp;quot;,&amp;quot;x&amp;quot;:&amp;quot;w&amp;quot;}],&amp;quot;title&amp;quot;:&amp;quot;PC&amp;quot;,&amp;quot;category&amp;quot;:&amp;quot;network&amp;quot;,&amp;quot;name&amp;quot;:&amp;quot;pc&amp;quot;,&amp;quot;path&amp;quot;:[{&amp;quot;lineStyle&amp;quot;:{&amp;quot;lineWidth&amp;quot;:0},&amp;quot;fillStyle&amp;quot;:{&amp;quot;fileId&amp;quot;:&amp;quot;/assets/images/designer/network/pc.svg&amp;quot;,&amp;quot;display&amp;quot;:&amp;quot;stretch&amp;quot;,&amp;quot;type&amp;quot;:&amp;quot;image&amp;quot;},&amp;quot;actions&amp;quot;:[{&amp;quot;action&amp;quot;:&amp;quot;move&amp;quot;,&amp;quot;y&amp;quot;:&amp;quot;0&amp;quot;,&amp;quot;x&amp;quot;:&amp;quot;0&amp;quot;},{&amp;quot;action&amp;quot;:&amp;quot;line&amp;quot;,&amp;quot;y&amp;quot;:&amp;quot;0&amp;quot;,&amp;quot;x&amp;quot;:&amp;quot;w&amp;quot;},{&amp;quot;action&amp;quot;:&amp;quot;line&amp;quot;,&amp;quot;y&amp;quot;:&amp;quot;h&amp;quot;,&amp;quot;x&amp;quot;:&amp;quot;w&amp;quot;},{&amp;quot;action&amp;quot;:&amp;quot;line&amp;quot;,&amp;quot;y&amp;quot;:&amp;quot;h&amp;quot;,&amp;quot;x&amp;quot;:&amp;quot;0&amp;quot;},{&amp;quot;action&amp;quot;:&amp;quot;close&amp;quot;}]}],&amp;quot;fillStyle&amp;quot;:{},&amp;quot;locked&amp;quot;:false,&amp;quot;group&amp;quot;:&amp;quot;&amp;quot;,&amp;quot;props&amp;quot;:{&amp;quot;w&amp;quot;:77,&amp;quot;angle&amp;quot;:0,&amp;quot;h&amp;quot;:65,&amp;quot;y&amp;quot;:546.5,&amp;quot;zindex&amp;quot;:4,&amp;quot;x&amp;quot;:321.5}},{&amp;quot;textBlock&amp;quot;:[{&amp;quot;position&amp;quot;:{&amp;quot;w&amp;quot;:&amp;quot;w+40&amp;quot;,&amp;quot;y&amp;quot;:&amp;quot;h&amp;quot;,&amp;quot;h&amp;quot;:&amp;quot;30&amp;quot;,&amp;quot;x&amp;quot;:&amp;quot;-20&amp;quot;},&amp;quot;text&amp;quot;:&amp;quot;&amp;quot;}],&amp;quot;lineStyle&amp;quot;:{&amp;quot;lineWidth&amp;quot;:0},&amp;quot;link&amp;quot;:&amp;quot;&amp;quot;,&amp;quot;children&amp;quot;:[],&amp;quot;parent&amp;quot;:&amp;quot;&amp;quot;,&amp;quot;attribute&amp;quot;:{&amp;quot;linkable&amp;quot;:true,&amp;quot;visible&amp;quot;:true,&amp;quot;container&amp;quot;:false,&amp;quot;rotatable&amp;quot;:true,&amp;quot;markerOffset&amp;quot;:5,&amp;quot;collapsable&amp;quot;:false,&amp;quot;collapsed&amp;quot;:false},&amp;quot;fontStyle&amp;quot;:{},&amp;quot;resizeDir&amp;quot;:[&amp;quot;tl&amp;quot;,&amp;quot;tr&amp;quot;,&amp;quot;br&amp;quot;,&amp;quot;bl&amp;quot;],&amp;quot;dataAttributes&amp;quot;:[],&amp;quot;shapeStyle&amp;quot;:{&amp;quot;alpha&amp;quot;:1},&amp;quot;id&amp;quot;:&amp;quot;165b25ef4d13fa&amp;quot;,&amp;quot;anchors&amp;quot;:[{&amp;quot;y&amp;quot;:&amp;quot;0&amp;quot;,&amp;quot;x&amp;quot;:&amp;quot;w/2&amp;quot;},{&amp;quot;y&amp;quot;:&amp;quot;h&amp;quot;,&amp;quot;x&amp;quot;:&amp;quot;w/2&amp;quot;},{&amp;quot;y&amp;quot;:&amp;quot;h/2&amp;quot;,&amp;quot;x&amp;quot;:&amp;quot;0&amp;quot;},{&amp;quot;y&amp;quot;:&amp;quot;h/2&amp;quot;,&amp;quot;x&amp;quot;:&amp;quot;w&amp;quot;}],&amp;quot;category&amp;quot;:&amp;quot;network&amp;quot;,&amp;quot;title&amp;quot;:&amp;quot;Access Point&amp;quot;,&amp;quot;name&amp;quot;:&amp;quot;access point&amp;quot;,&amp;quot;fillStyle&amp;quot;:{},&amp;quot;path&amp;quot;:[{&amp;quot;lineStyle&amp;quot;:{&amp;quot;lineWidth&amp;quot;:0},&amp;quot;fillStyle&amp;quot;:{&amp;quot;fileId&amp;quot;:&amp;quot;/assets/images/designer/network/accessPoint.svg&amp;quot;,&amp;quot;display&amp;quot;:&amp;quot;stretch&amp;quot;,&amp;quot;type&amp;quot;:&amp;quot;image&amp;quot;},&amp;quot;actions&amp;quot;:[{&amp;quot;action&amp;quot;:&amp;quot;move&amp;quot;,&amp;quot;y&amp;quot;:&amp;quot;0&amp;quot;,&amp;quot;x&amp;quot;:&amp;quot;0&amp;quot;},{&amp;quot;action&amp;quot;:&amp;quot;line&amp;quot;,&amp;quot;y&amp;quot;:&amp;quot;0&amp;quot;,&amp;quot;x&amp;quot;:&amp;quot;w&amp;quot;},{&amp;quot;action&amp;quot;:&amp;quot;line&amp;quot;,&amp;quot;y&amp;quot;:&amp;quot;h&amp;quot;,&amp;quot;x&amp;quot;:&amp;quot;w&amp;quot;},{&amp;quot;action&amp;quot;:&amp;quot;line&amp;quot;,&amp;quot;y&amp;quot;:&amp;quot;h&amp;quot;,&amp;quot;x&amp;quot;:&amp;quot;0&amp;quot;},{&amp;quot;action&amp;quot;:&amp;quot;close&amp;quot;}]}],&amp;quot;locked&amp;quot;:false,&amp;quot;group&amp;quot;:&amp;quot;165b28843f1c82&amp;quot;,&amp;quot;props&amp;quot;:{&amp;quot;w&amp;quot;:80,&amp;quot;y&amp;quot;:368.5,&amp;quot;h&amp;quot;:58,&amp;quot;angle&amp;quot;:0,&amp;quot;x&amp;quot;:167.5,&amp;quot;zindex&amp;quot;:5}},{&amp;quot;textBlock&amp;quot;:[{&amp;quot;position&amp;quot;:{&amp;quot;w&amp;quot;:&amp;quot;w+40&amp;quot;,&amp;quot;h&amp;quot;:&amp;quot;30&amp;quot;,&amp;quot;y&amp;quot;:&amp;quot;h&amp;quot;,&amp;quot;x&amp;quot;:&amp;quot;-20&amp;quot;},&amp;quot;text&amp;quot;:&amp;quot;&amp;quot;}],&amp;quot;lineStyle&amp;quot;:{&amp;quot;lineWidth&amp;quot;:0},&amp;quot;link&amp;quot;:&amp;quot;&amp;quot;,&amp;quot;children&amp;quot;:[],&amp;quot;parent&amp;quot;:&amp;quot;&amp;quot;,&amp;quot;attribute&amp;quot;:{&amp;quot;linkable&amp;quot;:true,&amp;quot;visible&amp;quot;:true,&amp;quot;container&amp;quot;:false,&amp;quot;rotatable&amp;quot;:true,&amp;quot;markerOffset&amp;quot;:5,&amp;quot;collapsable&amp;quot;:false,&amp;quot;collapsed&amp;quot;:false},&amp;quot;fontStyle&amp;quot;:{},&amp;quot;resizeDir&amp;quot;:[&amp;quot;tl&amp;quot;,&amp;quot;tr&amp;quot;,&amp;quot;br&amp;quot;,&amp;quot;bl&amp;quot;],&amp;quot;dataAttributes&amp;quot;:[],&amp;quot;shapeStyle&amp;quot;:{&amp;quot;alpha&amp;quot;:1},&amp;quot;id&amp;quot;:&amp;quot;165b25f36a961f&amp;quot;,&amp;quot;anchors&amp;quot;:[{&amp;quot;y&amp;quot;:&amp;quot;0&amp;quot;,&amp;quot;x&amp;quot;:&amp;quot;w/2&amp;quot;},{&amp;quot;y&amp;quot;:&amp;quot;h&amp;quot;,&amp;quot;x&amp;quot;:&amp;quot;w/2&amp;quot;},{&amp;quot;y&amp;quot;:&amp;quot;h/2&amp;quot;,&amp;quot;x&amp;quot;:&amp;quot;0&amp;quot;},{&amp;quot;y&amp;quot;:&amp;quot;h/2&amp;quot;,&amp;quot;x&amp;quot;:&amp;quot;w&amp;quot;}],&amp;quot;title&amp;quot;:&amp;quot;Ethernet&amp;quot;,&amp;quot;category&amp;quot;:&amp;quot;network&amp;quot;,&amp;quot;name&amp;quot;:&amp;quot;ethernet&amp;quot;,&amp;quot;path&amp;quot;:[{&amp;quot;lineStyle&amp;quot;:{&amp;quot;lineWidth&amp;quot;:0},&amp;quot;fillStyle&amp;quot;:{&amp;quot;fileId&amp;quot;:&amp;quot;/assets/images/designer/network/ethernet.svg&amp;quot;,&amp;quot;display&amp;quot;:&amp;quot;stretch&amp;quot;,&amp;quot;type&amp;quot;:&amp;quot;image&amp;quot;},&amp;quot;actions&amp;quot;:[{&amp;quot;action&amp;quot;:&amp;quot;move&amp;quot;,&amp;quot;y&amp;quot;:&amp;quot;0&amp;quot;,&amp;quot;x&amp;quot;:&amp;quot;0&amp;quot;},{&amp;quot;action&amp;quot;:&amp;quot;line&amp;quot;,&amp;quot;y&amp;quot;:&amp;quot;0&amp;quot;,&amp;quot;x&amp;quot;:&amp;quot;w&amp;quot;},{&amp;quot;action&amp;quot;:&amp;quot;line&amp;quot;,&amp;quot;y&amp;quot;:&amp;quot;h&amp;quot;,&amp;quot;x&amp;quot;:&amp;quot;w&amp;quot;},{&amp;quot;action&amp;quot;:&amp;quot;line&amp;quot;,&amp;quot;y&amp;quot;:&amp;quot;h&amp;quot;,&amp;quot;x&amp;quot;:&amp;quot;0&amp;quot;},{&amp;quot;action&amp;quot;:&amp;quot;close&amp;quot;}]}],&amp;quot;fillStyle&amp;quot;:{},&amp;quot;locked&amp;quot;:false,&amp;quot;group&amp;quot;:&amp;quot;&amp;quot;,&amp;quot;props&amp;quot;:{&amp;quot;w&amp;quot;:241.5,&amp;quot;angle&amp;quot;:0,&amp;quot;h&amp;quot;:37,&amp;quot;y&amp;quot;:334,&amp;quot;zindex&amp;quot;:6,&amp;quot;x&amp;quot;:331.5}},{&amp;quot;to&amp;quot;:{&amp;quot;id&amp;quot;:&amp;quot;165b25ef4d13fa&amp;quot;,&amp;quot;angle&amp;quot;:3.1415926535897927,&amp;quot;y&amp;quot;:416.5,&amp;quot;x&amp;quot;:247.5},&amp;quot;id&amp;quot;:&amp;quot;165b25f8e79f93&amp;quot;,&amp;quot;linkerType&amp;quot;:&amp;quot;broken&amp;quot;,&amp;quot;text&amp;quot;:&amp;quot;&amp;quot;,&amp;quot;lineStyle&amp;quot;:{&amp;quot;endArrowStyle&amp;quot;:&amp;quot;none&amp;quot;,&amp;quot;beginArrowStyle&amp;quot;:&amp;quot;none&amp;quot;},&amp;quot;name&amp;quot;:&amp;quot;linker&amp;quot;,&amp;quot;from&amp;quot;:{&amp;quot;id&amp;quot;:&amp;quot;165b25f36a961f&amp;quot;,&amp;quot;angle&amp;quot;:4.71238898038469,&amp;quot;y&amp;quot;:371,&amp;quot;x&amp;quot;:452.25},&amp;quot;dataAttributes&amp;quot;:[],&amp;quot;locked&amp;quot;:false,&amp;quot;points&amp;quot;:[{&amp;quot;y&amp;quot;:416.5,&amp;quot;x&amp;quot;:452.25}],&amp;quot;group&amp;quot;:&amp;quot;&amp;quot;,&amp;quot;props&amp;quot;:{&amp;quot;zindex&amp;quot;:7},&amp;quot;textBlock&amp;quot;:[]},{&amp;quot;id&amp;quot;:&amp;quot;165b25fb4ae8c5&amp;quot;,&amp;quot;to&amp;quot;:{&amp;quot;id&amp;quot;:&amp;quot;165b25f36a961f&amp;quot;,&amp;quot;y&amp;quot;:334,&amp;quot;angle&amp;quot;:1.5707963267948968,&amp;quot;x&amp;quot;:452.25},&amp;quot;text&amp;quot;:&amp;quot;&amp;quot;,&amp;quot;linkerType&amp;quot;:&amp;quot;broken&amp;quot;,&amp;quot;name&amp;quot;:&amp;quot;linker&amp;quot;,&amp;quot;lineStyle&amp;quot;:{&amp;quot;endArrowStyle&amp;quot;:&amp;quot;none&amp;quot;,&amp;quot;beginArrowStyle&amp;quot;:&amp;quot;none&amp;quot;},&amp;quot;points&amp;quot;:[{&amp;quot;y&amp;quot;:290.75,&amp;quot;x&amp;quot;:447},{&amp;quot;y&amp;quot;:290.75,&amp;quot;x&amp;quot;:452.25}],&amp;quot;locked&amp;quot;:false,&amp;quot;dataAttributes&amp;quot;:[],&amp;quot;from&amp;quot;:{&amp;quot;id&amp;quot;:&amp;quot;165b25e9f45c98&amp;quot;,&amp;quot;y&amp;quot;:247.5,&amp;quot;angle&amp;quot;:4.71238898038469,&amp;quot;x&amp;quot;:447},&amp;quot;group&amp;quot;:&amp;quot;&amp;quot;,&amp;quot;props&amp;quot;:{&amp;quot;zindex&amp;quot;:8},&amp;quot;textBlock&amp;quot;:[]},{&amp;quot;id&amp;quot;:&amp;quot;165b26072d42a7&amp;quot;,&amp;quot;to&amp;quot;:{&amp;quot;id&amp;quot;:&amp;quot;165b25f36a961f&amp;quot;,&amp;quot;y&amp;quot;:371,&amp;quot;angle&amp;quot;:4.71238898038469,&amp;quot;x&amp;quot;:486},&amp;quot;text&amp;quot;:&amp;quot;&amp;quot;,&amp;quot;linkerType&amp;quot;:&amp;quot;broken&amp;quot;,&amp;quot;name&amp;quot;:&amp;quot;linker&amp;quot;,&amp;quot;lineStyle&amp;quot;:{&amp;quot;endArrowStyle&amp;quot;:&amp;quot;none&amp;quot;,&amp;quot;beginArrowStyle&amp;quot;:&amp;quot;none&amp;quot;},&amp;quot;points&amp;quot;:[{&amp;quot;y&amp;quot;:447.5,&amp;quot;x&amp;quot;:452},{&amp;quot;y&amp;quot;:447.5,&amp;quot;x&amp;quot;:486}],&amp;quot;locked&amp;quot;:false,&amp;quot;dataAttributes&amp;quot;:[],&amp;quot;from&amp;quot;:{&amp;quot;y&amp;quot;:524,&amp;quot;x&amp;quot;:452},&amp;quot;group&amp;quot;:&amp;quot;&amp;quot;,&amp;quot;props&amp;quot;:{&amp;quot;zindex&amp;quot;:10},&amp;quot;textBlock&amp;quot;:[]},{&amp;quot;id&amp;quot;:&amp;quot;165b260db32273&amp;quot;,&amp;quot;to&amp;quot;:{&amp;quot;id&amp;quot;:&amp;quot;165b25e8c97a07&amp;quot;,&amp;quot;y&amp;quot;:145,&amp;quot;angle&amp;quot;:4.71238898038469,&amp;quot;x&amp;quot;:447},&amp;quot;text&amp;quot;:&amp;quot;&amp;quot;,&amp;quot;linkerType&amp;quot;:&amp;quot;broken&amp;quot;,&amp;quot;name&amp;quot;:&amp;quot;linker&amp;quot;,&amp;quot;lineStyle&amp;quot;:{&amp;quot;endArrowStyle&amp;quot;:&amp;quot;none&amp;quot;,&amp;quot;beginArrowStyle&amp;quot;:&amp;quot;none&amp;quot;},&amp;quot;points&amp;quot;:[{&amp;quot;y&amp;quot;:169.75,&amp;quot;x&amp;quot;:447},{&amp;quot;y&amp;quot;:169.75,&amp;quot;x&amp;quot;:447}],&amp;quot;locked&amp;quot;:false,&amp;quot;dataAttributes&amp;quot;:[],&amp;quot;from&amp;quot;:{&amp;quot;id&amp;quot;:&amp;quot;165b25e9f45c98&amp;quot;,&amp;quot;y&amp;quot;:194.5,&amp;quot;angle&amp;quot;:1.5707963267948968,&amp;quot;x&amp;quot;:447},&amp;quot;group&amp;quot;:&amp;quot;&amp;quot;,&amp;quot;props&amp;quot;:{&amp;quot;zindex&amp;quot;:11},&amp;quot;textBlock&amp;quot;:[]},{&amp;quot;textBlock&amp;quot;:[{&amp;quot;position&amp;quot;:{&amp;quot;w&amp;quot;:&amp;quot;w&amp;quot;,&amp;quot;y&amp;quot;:0,&amp;quot;h&amp;quot;:&amp;quot;h&amp;quot;,&amp;quot;x&amp;quot;:0},&amp;quot;text&amp;quot;:&amp;quot;防火墙/路由器&amp;quot;}],&amp;quot;lineStyle&amp;quot;:{},&amp;quot;link&amp;quot;:&amp;quot;&amp;quot;,&amp;quot;children&amp;quot;:[],&amp;quot;parent&amp;quot;:&amp;quot;&amp;quot;,&amp;quot;attribute&amp;quot;:{&amp;quot;linkable&amp;quot;:false,&amp;quot;visible&amp;quot;:true,&amp;quot;container&amp;quot;:false,&amp;quot;rotatable&amp;quot;:true,&amp;quot;markerOffset&amp;quot;:5,&amp;quot;collapsable&amp;quot;:false,&amp;quot;collapsed&amp;quot;:false},&amp;quot;fontStyle&amp;quot;:{},&amp;quot;resizeDir&amp;quot;:[&amp;quot;tl&amp;quot;,&amp;quot;tr&amp;quot;,&amp;quot;br&amp;quot;,&amp;quot;bl&amp;quot;],&amp;quot;dataAttributes&amp;quot;:[{&amp;quot;id&amp;quot;:&amp;quot;165b2797c73175&amp;quot;,&amp;quot;category&amp;quot;:&amp;quot;default&amp;quot;,&amp;quot;name&amp;quot;:&amp;quot;序号&amp;quot;,&amp;quot;value&amp;quot;:&amp;quot;&amp;quot;,&amp;quot;type&amp;quot;:&amp;quot;number&amp;quot;},{&amp;quot;id&amp;quot;:&amp;quot;165b2797c73a7b&amp;quot;,&amp;quot;category&amp;quot;:&amp;quot;default&amp;quot;,&amp;quot;name&amp;quot;:&amp;quot;名称&amp;quot;,&amp;quot;value&amp;quot;:&amp;quot;&amp;quot;,&amp;quot;type&amp;quot;:&amp;quot;string&amp;quot;},{&amp;quot;id&amp;quot;:&amp;quot;165b2797c73385&amp;quot;,&amp;quot;category&amp;quot;:&amp;quot;default&amp;quot;,&amp;quot;name&amp;quot;:&amp;quot;所有者&amp;quot;,&amp;quot;value&amp;quot;:&amp;quot;&amp;quot;,&amp;quot;type&amp;quot;:&amp;quot;string&amp;quot;},{&amp;quot;id&amp;quot;:&amp;quot;165b2797c73957&amp;quot;,&amp;quot;category&amp;quot;:&amp;quot;default&amp;quot;,&amp;quot;name&amp;quot;:&amp;quot;连接&amp;quot;,&amp;quot;value&amp;quot;:&amp;quot;&amp;quot;,&amp;quot;type&amp;quot;:&amp;quot;link&amp;quot;},{&amp;quot;id&amp;quot;:&amp;quot;165b2797c733c4&amp;quot;,&amp;quot;category&amp;quot;:&amp;quot;default&amp;quot;,&amp;quot;name&amp;quot;:&amp;quot;便笺&amp;quot;,&amp;quot;value&amp;quot;:&amp;quot;&amp;quot;,&amp;quot;type&amp;quot;:&amp;quot;string&amp;quot;}],&amp;quot;shapeStyle&amp;quot;:{&amp;quot;alpha&amp;quot;:1},&amp;quot;id&amp;quot;:&amp;quot;165b2797c73828&amp;quot;,&amp;quot;anchors&amp;quot;:[],&amp;quot;category&amp;quot;:&amp;quot;basic&amp;quot;,&amp;quot;title&amp;quot;:&amp;quot;文本&amp;quot;,&amp;quot;name&amp;quot;:&amp;quot;text&amp;quot;,&amp;quot;fillStyle&amp;quot;:{},&amp;quot;path&amp;quot;:[{&amp;quot;lineStyle&amp;quot;:{&amp;quot;lineWidth&amp;quot;:0},&amp;quot;fillStyle&amp;quot;:{&amp;quot;type&amp;quot;:&amp;quot;none&amp;quot;},&amp;quot;actions&amp;quot;:[{&amp;quot;action&amp;quot;:&amp;quot;move&amp;quot;,&amp;quot;y&amp;quot;:&amp;quot;0&amp;quot;,&amp;quot;x&amp;quot;:&amp;quot;0&amp;quot;},{&amp;quot;action&amp;quot;:&amp;quot;line&amp;quot;,&amp;quot;y&amp;quot;:&amp;quot;0&amp;quot;,&amp;quot;x&amp;quot;:&amp;quot;w&amp;quot;},{&amp;quot;action&amp;quot;:&amp;quot;line&amp;quot;,&amp;quot;y&amp;quot;:&amp;quot;h&amp;quot;,&amp;quot;x&amp;quot;:&amp;quot;w&amp;quot;},{&amp;quot;action&amp;quot;:&amp;quot;line&amp;quot;,&amp;quot;y&amp;quot;:&amp;quot;h&amp;quot;,&amp;quot;x&amp;quot;:&amp;quot;0&amp;quot;},{&amp;quot;action&amp;quot;:&amp;quot;close&amp;quot;}]}],&amp;quot;locked&amp;quot;:false,&amp;quot;group&amp;quot;:&amp;quot;&amp;quot;,&amp;quot;props&amp;quot;:{&amp;quot;w&amp;quot;:91,&amp;quot;y&amp;quot;:201,&amp;quot;h&amp;quot;:40,&amp;quot;angle&amp;quot;:0,&amp;quot;x&amp;quot;:318.5,&amp;quot;zindex&amp;quot;:12}},{&amp;quot;textBlock&amp;quot;:[{&amp;quot;position&amp;quot;:{&amp;quot;w&amp;quot;:&amp;quot;w&amp;quot;,&amp;quot;h&amp;quot;:&amp;quot;h&amp;quot;,&amp;quot;y&amp;quot;:0,&amp;quot;x&amp;quot;:0},&amp;quot;text&amp;quot;:&amp;quot;交换机&amp;quot;}],&amp;quot;lineStyle&amp;quot;:{},&amp;quot;link&amp;quot;:&amp;quot;&amp;quot;,&amp;quot;children&amp;quot;:[],&amp;quot;parent&amp;quot;:&amp;quot;&amp;quot;,&amp;quot;attribute&amp;quot;:{&amp;quot;linkable&amp;quot;:false,&amp;quot;visible&amp;quot;:true,&amp;quot;container&amp;quot;:false,&amp;quot;rotatable&amp;quot;:true,&amp;quot;markerOffset&amp;quot;:5,&amp;quot;collapsable&amp;quot;:false,&amp;quot;collapsed&amp;quot;:false},&amp;quot;fontStyle&amp;quot;:{},&amp;quot;resizeDir&amp;quot;:[&amp;quot;tl&amp;quot;,&amp;quot;tr&amp;quot;,&amp;quot;br&amp;quot;,&amp;quot;bl&amp;quot;],&amp;quot;dataAttributes&amp;quot;:[{&amp;quot;id&amp;quot;:&amp;quot;165b27a91dc08e&amp;quot;,&amp;quot;category&amp;quot;:&amp;quot;default&amp;quot;,&amp;quot;name&amp;quot;:&amp;quot;序号&amp;quot;,&amp;quot;value&amp;quot;:&amp;quot;&amp;quot;,&amp;quot;type&amp;quot;:&amp;quot;number&amp;quot;},{&amp;quot;id&amp;quot;:&amp;quot;165b27a91dc674&amp;quot;,&amp;quot;category&amp;quot;:&amp;quot;default&amp;quot;,&amp;quot;name&amp;quot;:&amp;quot;名称&amp;quot;,&amp;quot;value&amp;quot;:&amp;quot;&amp;quot;,&amp;quot;type&amp;quot;:&amp;quot;string&amp;quot;},{&amp;quot;id&amp;quot;:&amp;quot;165b27a91dc851&amp;quot;,&amp;quot;category&amp;quot;:&amp;quot;default&amp;quot;,&amp;quot;name&amp;quot;:&amp;quot;所有者&amp;quot;,&amp;quot;value&amp;quot;:&amp;quot;&amp;quot;,&amp;quot;type&amp;quot;:&amp;quot;string&amp;quot;},{&amp;quot;id&amp;quot;:&amp;quot;165b27a91dc38&amp;quot;,&amp;quot;category&amp;quot;:&amp;quot;default&amp;quot;,&amp;quot;name&amp;quot;:&amp;quot;连接&amp;quot;,&amp;quot;value&amp;quot;:&amp;quot;&amp;quot;,&amp;quot;type&amp;quot;:&amp;quot;link&amp;quot;},{&amp;quot;id&amp;quot;:&amp;quot;165b27a91dca76&amp;quot;,&amp;quot;category&amp;quot;:&amp;quot;default&amp;quot;,&amp;quot;name&amp;quot;:&amp;quot;便笺&amp;quot;,&amp;quot;value&amp;quot;:&amp;quot;&amp;quot;,&amp;quot;type&amp;quot;:&amp;quot;string&amp;quot;}],&amp;quot;shapeStyle&amp;quot;:{&amp;quot;alpha&amp;quot;:1},&amp;quot;id&amp;quot;:&amp;quot;165b27a91dc053&amp;quot;,&amp;quot;anchors&amp;quot;:[],&amp;quot;title&amp;quot;:&amp;quot;文本&amp;quot;,&amp;quot;category&amp;quot;:&amp;quot;basic&amp;quot;,&amp;quot;name&amp;quot;:&amp;quot;text&amp;quot;,&amp;quot;path&amp;quot;:[{&amp;quot;lineStyle&amp;quot;:{&amp;quot;lineWidth&amp;quot;:0},&amp;quot;fillStyle&amp;quot;:{&amp;quot;type&amp;quot;:&amp;quot;none&amp;quot;},&amp;quot;actions&amp;quot;:[{&amp;quot;action&amp;quot;:&amp;quot;move&amp;quot;,&amp;quot;y&amp;quot;:&amp;quot;0&amp;quot;,&amp;quot;x&amp;quot;:&amp;quot;0&amp;quot;},{&amp;quot;action&amp;quot;:&amp;quot;line&amp;quot;,&amp;quot;y&amp;quot;:&amp;quot;0&amp;quot;,&amp;quot;x&amp;quot;:&amp;quot;w&amp;quot;},{&amp;quot;action&amp;quot;:&amp;quot;line&amp;quot;,&amp;quot;y&amp;quot;:&amp;quot;h&amp;quot;,&amp;quot;x&amp;quot;:&amp;quot;w&amp;quot;},{&amp;quot;action&amp;quot;:&amp;quot;line&amp;quot;,&amp;quot;y&amp;quot;:&amp;quot;h&amp;quot;,&amp;quot;x&amp;quot;:&amp;quot;0&amp;quot;},{&amp;quot;action&amp;quot;:&amp;quot;close&amp;quot;}]}],&amp;quot;fillStyle&amp;quot;:{},&amp;quot;locked&amp;quot;:false,&amp;quot;group&amp;quot;:&amp;quot;&amp;quot;,&amp;quot;props&amp;quot;:{&amp;quot;w&amp;quot;:51,&amp;quot;angle&amp;quot;:0,&amp;quot;h&amp;quot;:32,&amp;quot;y&amp;quot;:336.5,&amp;quot;zindex&amp;quot;:13,&amp;quot;x&amp;quot;:276.5}},{&amp;quot;textBlock&amp;quot;:[{&amp;quot;position&amp;quot;:{&amp;quot;w&amp;quot;:&amp;quot;w&amp;quot;,&amp;quot;h&amp;quot;:&amp;quot;h&amp;quot;,&amp;quot;y&amp;quot;:0,&amp;quot;x&amp;quot;:0},&amp;quot;text&amp;quot;:&amp;quot;AP无线接入点&amp;quot;}],&amp;quot;lineStyle&amp;quot;:{},&amp;quot;link&amp;quot;:&amp;quot;&amp;quot;,&amp;quot;children&amp;quot;:[],&amp;quot;parent&amp;quot;:&amp;quot;&amp;quot;,&amp;quot;attribute&amp;quot;:{&amp;quot;linkable&amp;quot;:false,&amp;quot;visible&amp;quot;:true,&amp;quot;container&amp;quot;:false,&amp;quot;rotatable&amp;quot;:true,&amp;quot;markerOffset&amp;quot;:5,&amp;quot;collapsable&amp;quot;:false,&amp;quot;collapsed&amp;quot;:false},&amp;quot;fontStyle&amp;quot;:{&amp;quot;size&amp;quot;:15},&amp;quot;resizeDir&amp;quot;:[&amp;quot;tl&amp;quot;,&amp;quot;tr&amp;quot;,&amp;quot;br&amp;quot;,&amp;quot;bl&amp;quot;],&amp;quot;dataAttributes&amp;quot;:[{&amp;quot;id&amp;quot;:&amp;quot;165b27b55a7518&amp;quot;,&amp;quot;category&amp;quot;:&amp;quot;default&amp;quot;,&amp;quot;name&amp;quot;:&amp;quot;序号&amp;quot;,&amp;quot;value&amp;quot;:&amp;quot;&amp;quot;,&amp;quot;type&amp;quot;:&amp;quot;number&amp;quot;},{&amp;quot;id&amp;quot;:&amp;quot;165b27b55a722f&amp;quot;,&amp;quot;category&amp;quot;:&amp;quot;default&amp;quot;,&amp;quot;name&amp;quot;:&amp;quot;名称&amp;quot;,&amp;quot;value&amp;quot;:&amp;quot;&amp;quot;,&amp;quot;type&amp;quot;:&amp;quot;string&amp;quot;},{&amp;quot;id&amp;quot;:&amp;quot;165b27b55a7a0b&amp;quot;,&amp;quot;category&amp;quot;:&amp;quot;default&amp;quot;,&amp;quot;name&amp;quot;:&amp;quot;所有者&amp;quot;,&amp;quot;value&amp;quot;:&amp;quot;&amp;quot;,&amp;quot;type&amp;quot;:&amp;quot;string&amp;quot;},{&amp;quot;id&amp;quot;:&amp;quot;165b27b55a726e&amp;quot;,&amp;quot;category&amp;quot;:&amp;quot;default&amp;quot;,&amp;quot;name&amp;quot;:&amp;quot;连接&amp;quot;,&amp;quot;value&amp;quot;:&amp;quot;&amp;quot;,&amp;quot;type&amp;quot;:&amp;quot;link&amp;quot;},{&amp;quot;id&amp;quot;:&amp;quot;165b27b55a7a95&amp;quot;,&amp;quot;category&amp;quot;:&amp;quot;default&amp;quot;,&amp;quot;name&amp;quot;:&amp;quot;便笺&amp;quot;,&amp;quot;value&amp;quot;:&amp;quot;&amp;quot;,&amp;quot;type&amp;quot;:&amp;quot;string&amp;quot;}],&amp;quot;shapeStyle&amp;quot;:{&amp;quot;alpha&amp;quot;:1},&amp;quot;id&amp;quot;:&amp;quot;165b27b4e25fee&amp;quot;,&amp;quot;anchors&amp;quot;:[],&amp;quot;title&amp;quot;:&amp;quot;文本&amp;quot;,&amp;quot;category&amp;quot;:&amp;quot;basic&amp;quot;,&amp;quot;name&amp;quot;:&amp;quot;text&amp;quot;,&amp;quot;path&amp;quot;:[{&amp;quot;lineStyle&amp;quot;:{&amp;quot;lineWidth&amp;quot;:0},&amp;quot;fillStyle&amp;quot;:{&amp;quot;type&amp;quot;:&amp;quot;none&amp;quot;},&amp;quot;actions&amp;quot;:[{&amp;quot;action&amp;quot;:&amp;quot;move&amp;quot;,&amp;quot;y&amp;quot;:&amp;quot;0&amp;quot;,&amp;quot;x&amp;quot;:&amp;quot;0&amp;quot;},{&amp;quot;action&amp;quot;:&amp;quot;line&amp;quot;,&amp;quot;y&amp;quot;:&amp;quot;0&amp;quot;,&amp;quot;x&amp;quot;:&amp;quot;w&amp;quot;},{&amp;quot;action&amp;quot;:&amp;quot;line&amp;quot;,&amp;quot;y&amp;quot;:&amp;quot;h&amp;quot;,&amp;quot;x&amp;quot;:&amp;quot;w&amp;quot;},{&amp;quot;action&amp;quot;:&amp;quot;line&amp;quot;,&amp;quot;y&amp;quot;:&amp;quot;h&amp;quot;,&amp;quot;x&amp;quot;:&amp;quot;0&amp;quot;},{&amp;quot;action&amp;quot;:&amp;quot;close&amp;quot;}]}],&amp;quot;fillStyle&amp;quot;:{},&amp;quot;locked&amp;quot;:false,&amp;quot;group&amp;quot;:&amp;quot;165b28843f1c82&amp;quot;,&amp;quot;props&amp;quot;:{&amp;quot;w&amp;quot;:106,&amp;quot;angle&amp;quot;:0,&amp;quot;h&amp;quot;:28,&amp;quot;y&amp;quot;:403.5,&amp;quot;zindex&amp;quot;:14,&amp;quot;x&amp;quot;:57.5}},{&amp;quot;textBlock&amp;quot;:[{&amp;quot;position&amp;quot;:{&amp;quot;w&amp;quot;:&amp;quot;w+40&amp;quot;,&amp;quot;y&amp;quot;:&amp;quot;h&amp;quot;,&amp;quot;h&amp;quot;:&amp;quot;30&amp;quot;,&amp;quot;x&amp;quot;:&amp;quot;-20&amp;quot;},&amp;quot;text&amp;quot;:&amp;quot;&amp;quot;}],&amp;quot;lineStyle&amp;quot;:{&amp;quot;lineWidth&amp;quot;:0},&amp;quot;link&amp;quot;:&amp;quot;&amp;quot;,&amp;quot;children&amp;quot;:[],&amp;quot;parent&amp;quot;:&amp;quot;&amp;quot;,&amp;quot;attribute&amp;quot;:{&amp;quot;linkable&amp;quot;:true,&amp;quot;visible&amp;quot;:true,&amp;quot;container&amp;quot;:false,&amp;quot;rotatable&amp;quot;:true,&amp;quot;markerOffset&amp;quot;:5,&amp;quot;collapsable&amp;quot;:false,&amp;quot;collapsed&amp;quot;:false},&amp;quot;fontStyle&amp;quot;:{},&amp;quot;resizeDir&amp;quot;:[&amp;quot;tl&amp;quot;,&amp;quot;tr&amp;quot;,&amp;quot;br&amp;quot;,&amp;quot;bl&amp;quot;],&amp;quot;dataAttributes&amp;quot;:[],&amp;quot;shapeStyle&amp;quot;:{&amp;quot;alpha&amp;quot;:1},&amp;quot;id&amp;quot;:&amp;quot;165b27bf427a43&amp;quot;,&amp;quot;anchors&amp;quot;:[{&amp;quot;y&amp;quot;:&amp;quot;0&amp;quot;,&amp;quot;x&amp;quot;:&amp;quot;w/2&amp;quot;},{&amp;quot;y&amp;quot;:&amp;quot;h&amp;quot;,&amp;quot;x&amp;quot;:&amp;quot;w/2&amp;quot;},{&amp;quot;y&amp;quot;:&amp;quot;h/2&amp;quot;,&amp;quot;x&amp;quot;:&amp;quot;0&amp;quot;},{&amp;quot;y&amp;quot;:&amp;quot;h/2&amp;quot;,&amp;quot;x&amp;quot;:&amp;quot;w&amp;quot;}],&amp;quot;category&amp;quot;:&amp;quot;network&amp;quot;,&amp;quot;title&amp;quot;:&amp;quot;Signal&amp;quot;,&amp;quot;name&amp;quot;:&amp;quot;signal&amp;quot;,&amp;quot;fillStyle&amp;quot;:{},&amp;quot;path&amp;quot;:[{&amp;quot;lineStyle&amp;quot;:{&amp;quot;lineWidth&amp;quot;:0},&amp;quot;fillStyle&amp;quot;:{&amp;quot;fileId&amp;quot;:&amp;quot;/assets/images/designer/network/signal.svg&amp;quot;,&amp;quot;display&amp;quot;:&amp;quot;stretch&amp;quot;,&amp;quot;type&amp;quot;:&amp;quot;image&amp;quot;},&amp;quot;actions&amp;quot;:[{&amp;quot;action&amp;quot;:&amp;quot;move&amp;quot;,&amp;quot;y&amp;quot;:&amp;quot;0&amp;quot;,&amp;quot;x&amp;quot;:&amp;quot;0&amp;quot;},{&amp;quot;action&amp;quot;:&amp;quot;line&amp;quot;,&amp;quot;y&amp;quot;:&amp;quot;0&amp;quot;,&amp;quot;x&amp;quot;:&amp;quot;w&amp;quot;},{&amp;quot;action&amp;quot;:&amp;quot;line&amp;quot;,&amp;quot;y&amp;quot;:&amp;quot;h&amp;quot;,&amp;quot;x&amp;quot;:&amp;quot;w&amp;quot;},{&amp;quot;action&amp;quot;:&amp;quot;line&amp;quot;,&amp;quot;y&amp;quot;:&amp;quot;h&amp;quot;,&amp;quot;x&amp;quot;:&amp;quot;0&amp;quot;},{&amp;quot;action&amp;quot;:&amp;quot;close&amp;quot;}]}],&amp;quot;locked&amp;quot;:false,&amp;quot;group&amp;quot;:&amp;quot;&amp;quot;,&amp;quot;props&amp;quot;:{&amp;quot;w&amp;quot;:44.70420354661826,&amp;quot;y&amp;quot;:462,&amp;quot;h&amp;quot;:60.45964561364934,&amp;quot;angle&amp;quot;:1.5707963267948966,&amp;quot;x&amp;quot;:171.2332812904388,&amp;quot;zindex&amp;quot;:15}},{&amp;quot;textBlock&amp;quot;:[{&amp;quot;position&amp;quot;:{&amp;quot;w&amp;quot;:&amp;quot;w+40&amp;quot;,&amp;quot;y&amp;quot;:&amp;quot;h&amp;quot;,&amp;quot;h&amp;quot;:&amp;quot;30&amp;quot;,&amp;quot;x&amp;quot;:&amp;quot;-20&amp;quot;},&amp;quot;text&amp;quot;:&amp;quot;AC 无线控制器&amp;quot;}],&amp;quot;lineStyle&amp;quot;:{&amp;quot;lineWidth&amp;quot;:0},&amp;quot;link&amp;quot;:&amp;quot;&amp;quot;,&amp;quot;children&amp;quot;:[],&amp;quot;parent&amp;quot;:&amp;quot;&amp;quot;,&amp;quot;attribute&amp;quot;:{&amp;quot;linkable&amp;quot;:true,&amp;quot;visible&amp;quot;:true,&amp;quot;container&amp;quot;:false,&amp;quot;rotatable&amp;quot;:true,&amp;quot;markerOffset&amp;quot;:5,&amp;quot;collapsable&amp;quot;:false,&amp;quot;collapsed&amp;quot;:false},&amp;quot;fontStyle&amp;quot;:{},&amp;quot;resizeDir&amp;quot;:[&amp;quot;tl&amp;quot;,&amp;quot;tr&amp;quot;,&amp;quot;br&amp;quot;,&amp;quot;bl&amp;quot;],&amp;quot;dataAttributes&amp;quot;:[],&amp;quot;shapeStyle&amp;quot;:{&amp;quot;alpha&amp;quot;:1},&amp;quot;id&amp;quot;:&amp;quot;165b27ebd9506&amp;quot;,&amp;quot;anchors&amp;quot;:[{&amp;quot;y&amp;quot;:&amp;quot;0&amp;quot;,&amp;quot;x&amp;quot;:&amp;quot;w/2&amp;quot;},{&amp;quot;y&amp;quot;:&amp;quot;h&amp;quot;,&amp;quot;x&amp;quot;:&amp;quot;w/2&amp;quot;},{&amp;quot;y&amp;quot;:&amp;quot;h/2&amp;quot;,&amp;quot;x&amp;quot;:&amp;quot;0&amp;quot;},{&amp;quot;y&amp;quot;:&amp;quot;h/2&amp;quot;,&amp;quot;x&amp;quot;:&amp;quot;w&amp;quot;}],&amp;quot;category&amp;quot;:&amp;quot;network&amp;quot;,&amp;quot;title&amp;quot;:&amp;quot;Router&amp;quot;,&amp;quot;name&amp;quot;:&amp;quot;router&amp;quot;,&amp;quot;fillStyle&amp;quot;:{},&amp;quot;path&amp;quot;:[{&amp;quot;lineStyle&amp;quot;:{&amp;quot;lineWidth&amp;quot;:0},&amp;quot;fillStyle&amp;quot;:{&amp;quot;fileId&amp;quot;:&amp;quot;/assets/images/designer/network/router.svg&amp;quot;,&amp;quot;display&amp;quot;:&amp;quot;stretch&amp;quot;,&amp;quot;type&amp;quot;:&amp;quot;image&amp;quot;},&amp;quot;actions&amp;quot;:[{&amp;quot;action&amp;quot;:&amp;quot;move&amp;quot;,&amp;quot;y&amp;quot;:&amp;quot;0&amp;quot;,&amp;quot;x&amp;quot;:&amp;quot;0&amp;quot;},{&amp;quot;action&amp;quot;:&amp;quot;line&amp;quot;,&amp;quot;y&amp;quot;:&amp;quot;0&amp;quot;,&amp;quot;x&amp;quot;:&amp;quot;w&amp;quot;},{&amp;quot;action&amp;quot;:&amp;quot;line&amp;quot;,&amp;quot;y&amp;quot;:&amp;quot;h&amp;quot;,&amp;quot;x&amp;quot;:&amp;quot;w&amp;quot;},{&amp;quot;action&amp;quot;:&amp;quot;line&amp;quot;,&amp;quot;y&amp;quot;:&amp;quot;h&amp;quot;,&amp;quot;x&amp;quot;:&amp;quot;0&amp;quot;},{&amp;quot;action&amp;quot;:&amp;quot;close&amp;quot;}]}],&amp;quot;locked&amp;quot;:false,&amp;quot;group&amp;quot;:&amp;quot;&amp;quot;,&amp;quot;props&amp;quot;:{&amp;quot;w&amp;quot;:115.5,&amp;quot;y&amp;quot;:328.5,&amp;quot;h&amp;quot;:32,&amp;quot;angle&amp;quot;:0,&amp;quot;x&amp;quot;:634.5,&amp;quot;zindex&amp;quot;:16}},{&amp;quot;id&amp;quot;:&amp;quot;165b27ef4a0f15&amp;quot;,&amp;quot;to&amp;quot;:{&amp;quot;id&amp;quot;:&amp;quot;165b27ebd9506&amp;quot;,&amp;quot;y&amp;quot;:344.5,&amp;quot;angle&amp;quot;:0,&amp;quot;x&amp;quot;:634.5},&amp;quot;text&amp;quot;:&amp;quot;&amp;quot;,&amp;quot;linkerType&amp;quot;:&amp;quot;broken&amp;quot;,&amp;quot;name&amp;quot;:&amp;quot;linker&amp;quot;,&amp;quot;lineStyle&amp;quot;:{&amp;quot;endArrowStyle&amp;quot;:&amp;quot;none&amp;quot;,&amp;quot;beginArrowStyle&amp;quot;:&amp;quot;none&amp;quot;},&amp;quot;points&amp;quot;:[{&amp;quot;y&amp;quot;:352.5,&amp;quot;x&amp;quot;:603.75},{&amp;quot;y&amp;quot;:344.5,&amp;quot;x&amp;quot;:603.75}],&amp;quot;locked&amp;quot;:false,&amp;quot;dataAttributes&amp;quot;:[],&amp;quot;from&amp;quot;:{&amp;quot;id&amp;quot;:&amp;quot;165b25f36a961f&amp;quot;,&amp;quot;y&amp;quot;:352.5,&amp;quot;angle&amp;quot;:3.141592653589793,&amp;quot;x&amp;quot;:573},&amp;quot;group&amp;quot;:&amp;quot;&amp;quot;,&amp;quot;props&amp;quot;:{&amp;quot;zindex&amp;quot;:17},&amp;quot;textBlock&amp;quot;:[]},{&amp;quot;textBlock&amp;quot;:[{&amp;quot;position&amp;quot;:{&amp;quot;w&amp;quot;:&amp;quot;w+40&amp;quot;,&amp;quot;h&amp;quot;:&amp;quot;30&amp;quot;,&amp;quot;y&amp;quot;:&amp;quot;h&amp;quot;,&amp;quot;x&amp;quot;:&amp;quot;-20&amp;quot;},&amp;quot;text&amp;quot;:&amp;quot;Note PC&amp;quot;}],&amp;quot;lineStyle&amp;quot;:{&amp;quot;lineWidth&amp;quot;:0},&amp;quot;link&amp;quot;:&amp;quot;&amp;quot;,&amp;quot;children&amp;quot;:[],&amp;quot;parent&amp;quot;:&amp;quot;&amp;quot;,&amp;quot;attribute&amp;quot;:{&amp;quot;linkable&amp;quot;:true,&amp;quot;visible&amp;quot;:true,&amp;quot;container&amp;quot;:false,&amp;quot;rotatable&amp;quot;:true,&amp;quot;markerOffset&amp;quot;:5,&amp;quot;collapsable&amp;quot;:false,&amp;quot;collapsed&amp;quot;:false},&amp;quot;fontStyle&amp;quot;:{},&amp;quot;resizeDir&amp;quot;:[&amp;quot;tl&amp;quot;,&amp;quot;tr&amp;quot;,&amp;quot;br&amp;quot;,&amp;quot;bl&amp;quot;],&amp;quot;dataAttributes&amp;quot;:[],&amp;quot;shapeStyle&amp;quot;:{&amp;quot;alpha&amp;quot;:1},&amp;quot;id&amp;quot;:&amp;quot;165b2876e48812&amp;quot;,&amp;quot;anchors&amp;quot;:[{&amp;quot;y&amp;quot;:&amp;quot;0&amp;quot;,&amp;quot;x&amp;quot;:&amp;quot;w/2&amp;quot;},{&amp;quot;y&amp;quot;:&amp;quot;h&amp;quot;,&amp;quot;x&amp;quot;:&amp;quot;w/2&amp;quot;},{&amp;quot;y&amp;quot;:&amp;quot;h/2&amp;quot;,&amp;quot;x&amp;quot;:&amp;quot;0&amp;quot;},{&amp;quot;y&amp;quot;:&amp;quot;h/2&amp;quot;,&amp;quot;x&amp;quot;:&amp;quot;w&amp;quot;}],&amp;quot;title&amp;quot;:&amp;quot;Notebook&amp;quot;,&amp;quot;category&amp;quot;:&amp;quot;network&amp;quot;,&amp;quot;name&amp;quot;:&amp;quot;notebook&amp;quot;,&amp;quot;path&amp;quot;:[{&amp;quot;lineStyle&amp;quot;:{&amp;quot;lineWidth&amp;quot;:0},&amp;quot;fillStyle&amp;quot;:{&amp;quot;fileId&amp;quot;:&amp;quot;/assets/images/designer/network/notebook.svg&amp;quot;,&amp;quot;display&amp;quot;:&amp;quot;stretch&amp;quot;,&amp;quot;type&amp;quot;:&amp;quot;image&amp;quot;},&amp;quot;actions&amp;quot;:[{&amp;quot;action&amp;quot;:&amp;quot;move&amp;quot;,&amp;quot;y&amp;quot;:&amp;quot;0&amp;quot;,&amp;quot;x&amp;quot;:&amp;quot;0&amp;quot;},{&amp;quot;action&amp;quot;:&amp;quot;line&amp;quot;,&amp;quot;y&amp;quot;:&amp;quot;0&amp;quot;,&amp;quot;x&amp;quot;:&amp;quot;w&amp;quot;},{&amp;quot;action&amp;quot;:&amp;quot;line&amp;quot;,&amp;quot;y&amp;quot;:&amp;quot;h&amp;quot;,&amp;quot;x&amp;quot;:&amp;quot;w&amp;quot;},{&amp;quot;action&amp;quot;:&amp;quot;line&amp;quot;,&amp;quot;y&amp;quot;:&amp;quot;h&amp;quot;,&amp;quot;x&amp;quot;:&amp;quot;0&amp;quot;},{&amp;quot;action&amp;quot;:&amp;quot;close&amp;quot;}]}],&amp;quot;fillStyle&amp;quot;:{},&amp;quot;locked&amp;quot;:false,&amp;quot;group&amp;quot;:&amp;quot;&amp;quot;,&amp;quot;props&amp;quot;:{&amp;quot;w&amp;quot;:79,&amp;quot;angle&amp;quot;:0,&amp;quot;h&amp;quot;:48,&amp;quot;y&amp;quot;:555,&amp;quot;zindex&amp;quot;:18,&amp;quot;x&amp;quot;:186.08538306374794}},{&amp;quot;textBlock&amp;quot;:[{&amp;quot;position&amp;quot;:{&amp;quot;w&amp;quot;:&amp;quot;w+40&amp;quot;,&amp;quot;h&amp;quot;:&amp;quot;30&amp;quot;,&amp;quot;y&amp;quot;:&amp;quot;h&amp;quot;,&amp;quot;x&amp;quot;:&amp;quot;-20&amp;quot;},&amp;quot;text&amp;quot;:&amp;quot;PC&amp;quot;}],&amp;quot;lineStyle&amp;quot;:{&amp;quot;lineWidth&amp;quot;:0},&amp;quot;link&amp;quot;:&amp;quot;&amp;quot;,&amp;quot;children&amp;quot;:[],&amp;quot;parent&amp;quot;:&amp;quot;&amp;quot;,&amp;quot;attribute&amp;quot;:{&amp;quot;linkable&amp;quot;:true,&amp;quot;visible&amp;quot;:true,&amp;quot;container&amp;quot;:false,&amp;quot;rotatable&amp;quot;:true,&amp;quot;markerOffset&amp;quot;:5,&amp;quot;collapsable&amp;quot;:false,&amp;quot;collapsed&amp;quot;:false},&amp;quot;fontStyle&amp;quot;:{},&amp;quot;resizeDir&amp;quot;:[&amp;quot;tl&amp;quot;,&amp;quot;tr&amp;quot;,&amp;quot;br&amp;quot;,&amp;quot;bl&amp;quot;],&amp;quot;dataAttributes&amp;quot;:[],&amp;quot;shapeStyle&amp;quot;:{&amp;quot;alpha&amp;quot;:1},&amp;quot;id&amp;quot;:&amp;quot;165b287ddfd0d5&amp;quot;,&amp;quot;anchors&amp;quot;:[{&amp;quot;y&amp;quot;:&amp;quot;0&amp;quot;,&amp;quot;x&amp;quot;:&amp;quot;w/2&amp;quot;},{&amp;quot;y&amp;quot;:&amp;quot;h&amp;quot;,&amp;quot;x&amp;quot;:&amp;quot;w/2&amp;quot;},{&amp;quot;y&amp;quot;:&amp;quot;h/2&amp;quot;,&amp;quot;x&amp;quot;:&amp;quot;0&amp;quot;},{&amp;quot;y&amp;quot;:&amp;quot;h/2&amp;quot;,&amp;quot;x&amp;quot;:&amp;quot;w&amp;quot;}],&amp;quot;title&amp;quot;:&amp;quot;PC&amp;quot;,&amp;quot;category&amp;quot;:&amp;quot;network&amp;quot;,&amp;quot;name&amp;quot;:&amp;quot;pc&amp;quot;,&amp;quot;path&amp;quot;:[{&amp;quot;lineStyle&amp;quot;:{&amp;quot;lineWidth&amp;quot;:0},&amp;quot;fillStyle&amp;quot;:{&amp;quot;fileId&amp;quot;:&amp;quot;/assets/images/designer/network/pc.svg&amp;quot;,&amp;quot;display&amp;quot;:&amp;quot;stretch&amp;quot;,&amp;quot;type&amp;quot;:&amp;quot;image&amp;quot;},&amp;quot;actions&amp;quot;:[{&amp;quot;action&amp;quot;:&amp;quot;move&amp;quot;,&amp;quot;y&amp;quot;:&amp;quot;0&amp;quot;,&amp;quot;x&amp;quot;:&amp;quot;0&amp;quot;},{&amp;quot;action&amp;quot;:&amp;quot;line&amp;quot;,&amp;quot;y&amp;quot;:&amp;quot;0&amp;quot;,&amp;quot;x&amp;quot;:&amp;quot;w&amp;quot;},{&amp;quot;action&amp;quot;:&amp;quot;line&amp;quot;,&amp;quot;y&amp;quot;:&amp;quot;h&amp;quot;,&amp;quot;x&amp;quot;:&amp;quot;w&amp;quot;},{&amp;quot;action&amp;quot;:&amp;quot;line&amp;quot;,&amp;quot;y&amp;quot;:&amp;quot;h&amp;quot;,&amp;quot;x&amp;quot;:&amp;quot;0&amp;quot;},{&amp;quot;action&amp;quot;:&amp;quot;close&amp;quot;}]}],&amp;quot;fillStyle&amp;quot;:{},&amp;quot;locked&amp;quot;:false,&amp;quot;group&amp;quot;:&amp;quot;&amp;quot;,&amp;quot;props&amp;quot;:{&amp;quot;w&amp;quot;:77,&amp;quot;angle&amp;quot;:0,&amp;quot;h&amp;quot;:65,&amp;quot;y&amp;quot;:546.5,&amp;quot;zindex&amp;quot;:19,&amp;quot;x&amp;quot;:432.5}},{&amp;quot;textBlock&amp;quot;:[{&amp;quot;position&amp;quot;:{&amp;quot;w&amp;quot;:&amp;quot;w+40&amp;quot;,&amp;quot;h&amp;quot;:&amp;quot;30&amp;quot;,&amp;quot;y&amp;quot;:&amp;quot;h&amp;quot;,&amp;quot;x&amp;quot;:&amp;quot;-20&amp;quot;},&amp;quot;text&amp;quot;:&amp;quot;PC&amp;quot;}],&amp;quot;lineStyle&amp;quot;:{&amp;quot;lineWidth&amp;quot;:0},&amp;quot;link&amp;quot;:&amp;quot;&amp;quot;,&amp;quot;children&amp;quot;:[],&amp;quot;parent&amp;quot;:&amp;quot;&amp;quot;,&amp;quot;attribute&amp;quot;:{&amp;quot;linkable&amp;quot;:true,&amp;quot;visible&amp;quot;:true,&amp;quot;container&amp;quot;:false,&amp;quot;rotatable&amp;quot;:true,&amp;quot;markerOffset&amp;quot;:5,&amp;quot;collapsable&amp;quot;:false,&amp;quot;collapsed&amp;quot;:false},&amp;quot;fontStyle&amp;quot;:{},&amp;quot;resizeDir&amp;quot;:[&amp;quot;tl&amp;quot;,&amp;quot;tr&amp;quot;,&amp;quot;br&amp;quot;,&amp;quot;bl&amp;quot;],&amp;quot;dataAttributes&amp;quot;:[],&amp;quot;shapeStyle&amp;quot;:{&amp;quot;alpha&amp;quot;:1},&amp;quot;id&amp;quot;:&amp;quot;165b287e4150e9&amp;quot;,&amp;quot;anchors&amp;quot;:[{&amp;quot;y&amp;quot;:&amp;quot;0&amp;quot;,&amp;quot;x&amp;quot;:&amp;quot;w/2&amp;quot;},{&amp;quot;y&amp;quot;:&amp;quot;h&amp;quot;,&amp;quot;x&amp;quot;:&amp;quot;w/2&amp;quot;},{&amp;quot;y&amp;quot;:&amp;quot;h/2&amp;quot;,&amp;quot;x&amp;quot;:&amp;quot;0&amp;quot;},{&amp;quot;y&amp;quot;:&amp;quot;h/2&amp;quot;,&amp;quot;x&amp;quot;:&amp;quot;w&amp;quot;}],&amp;quot;title&amp;quot;:&amp;quot;PC&amp;quot;,&amp;quot;category&amp;quot;:&amp;quot;network&amp;quot;,&amp;quot;name&amp;quot;:&amp;quot;pc&amp;quot;,&amp;quot;path&amp;quot;:[{&amp;quot;lineStyle&amp;quot;:{&amp;quot;lineWidth&amp;quot;:0},&amp;quot;fillStyle&amp;quot;:{&amp;quot;fileId&amp;quot;:&amp;quot;/assets/images/designer/network/pc.svg&amp;quot;,&amp;quot;display&amp;quot;:&amp;quot;stretch&amp;quot;,&amp;quot;type&amp;quot;:&amp;quot;image&amp;quot;},&amp;quot;actions&amp;quot;:[{&amp;quot;action&amp;quot;:&amp;quot;move&amp;quot;,&amp;quot;y&amp;quot;:&amp;quot;0&amp;quot;,&amp;quot;x&amp;quot;:&amp;quot;0&amp;quot;},{&amp;quot;action&amp;quot;:&amp;quot;line&amp;quot;,&amp;quot;y&amp;quot;:&amp;quot;0&amp;quot;,&amp;quot;x&amp;quot;:&amp;quot;w&amp;quot;},{&amp;quot;action&amp;quot;:&amp;quot;line&amp;quot;,&amp;quot;y&amp;quot;:&amp;quot;h&amp;quot;,&amp;quot;x&amp;quot;:&amp;quot;w&amp;quot;},{&amp;quot;action&amp;quot;:&amp;quot;line&amp;quot;,&amp;quot;y&amp;quot;:&amp;quot;h&amp;quot;,&amp;quot;x&amp;quot;:&amp;quot;0&amp;quot;},{&amp;quot;action&amp;quot;:&amp;quot;close&amp;quot;}]}],&amp;quot;fillStyle&amp;quot;:{},&amp;quot;locked&amp;quot;:false,&amp;quot;group&amp;quot;:&amp;quot;&amp;quot;,&amp;quot;props&amp;quot;:{&amp;quot;w&amp;quot;:77,&amp;quot;angle&amp;quot;:0,&amp;quot;h&amp;quot;:65,&amp;quot;y&amp;quot;:546.5,&amp;quot;zindex&amp;quot;:20,&amp;quot;x&amp;quot;:542.5}},{&amp;quot;textBlock&amp;quot;:[{&amp;quot;position&amp;quot;:{&amp;quot;w&amp;quot;:&amp;quot;w+40&amp;quot;,&amp;quot;h&amp;quot;:&amp;quot;30&amp;quot;,&amp;quot;y&amp;quot;:&amp;quot;h&amp;quot;,&amp;quot;x&amp;quot;:&amp;quot;-20&amp;quot;},&amp;quot;text&amp;quot;:&amp;quot;来宾&amp;quot;}],&amp;quot;lineStyle&amp;quot;:{&amp;quot;lineWidth&amp;quot;:0},&amp;quot;link&amp;quot;:&amp;quot;&amp;quot;,&amp;quot;children&amp;quot;:[],&amp;quot;parent&amp;quot;:&amp;quot;&amp;quot;,&amp;quot;attribute&amp;quot;:{&amp;quot;linkable&amp;quot;:true,&amp;quot;visible&amp;quot;:true,&amp;quot;container&amp;quot;:false,&amp;quot;rotatable&amp;quot;:true,&amp;quot;markerOffset&amp;quot;:5,&amp;quot;collapsable&amp;quot;:false,&amp;quot;collapsed&amp;quot;:false},&amp;quot;fontStyle&amp;quot;:{},&amp;quot;resizeDir&amp;quot;:[&amp;quot;tl&amp;quot;,&amp;quot;tr&amp;quot;,&amp;quot;br&amp;quot;,&amp;quot;bl&amp;quot;],&amp;quot;dataAttributes&amp;quot;:[],&amp;quot;shapeStyle&amp;quot;:{&amp;quot;alpha&amp;quot;:1},&amp;quot;id&amp;quot;:&amp;quot;165b288d54334d&amp;quot;,&amp;quot;anchors&amp;quot;:[{&amp;quot;y&amp;quot;:&amp;quot;0&amp;quot;,&amp;quot;x&amp;quot;:&amp;quot;w/2&amp;quot;},{&amp;quot;y&amp;quot;:&amp;quot;h&amp;quot;,&amp;quot;x&amp;quot;:&amp;quot;w/2&amp;quot;},{&amp;quot;y&amp;quot;:&amp;quot;h/2&amp;quot;,&amp;quot;x&amp;quot;:&amp;quot;0&amp;quot;},{&amp;quot;y&amp;quot;:&amp;quot;h/2&amp;quot;,&amp;quot;x&amp;quot;:&amp;quot;w&amp;quot;}],&amp;quot;title&amp;quot;:&amp;quot;Notebook&amp;quot;,&amp;quot;category&amp;quot;:&amp;quot;network&amp;quot;,&amp;quot;name&amp;quot;:&amp;quot;notebook&amp;quot;,&amp;quot;path&amp;quot;:[{&amp;quot;lineStyle&amp;quot;:{&amp;quot;lineWidth&amp;quot;:0},&amp;quot;fillStyle&amp;quot;:{&amp;quot;fileId&amp;quot;:&amp;quot;/assets/images/designer/network/notebook.svg&amp;quot;,&amp;quot;display&amp;quot;:&amp;quot;stretch&amp;quot;,&amp;quot;type&amp;quot;:&amp;quot;image&amp;quot;},&amp;quot;actions&amp;quot;:[{&amp;quot;action&amp;quot;:&amp;quot;move&amp;quot;,&amp;quot;y&amp;quot;:&amp;quot;0&amp;quot;,&amp;quot;x&amp;quot;:&amp;quot;0&amp;quot;},{&amp;quot;action&amp;quot;:&amp;quot;line&amp;quot;,&amp;quot;y&amp;quot;:&amp;quot;0&amp;quot;,&amp;quot;x&amp;quot;:&amp;quot;w&amp;quot;},{&amp;quot;action&amp;quot;:&amp;quot;line&amp;quot;,&amp;quot;y&amp;quot;:&amp;quot;h&amp;quot;,&amp;quot;x&amp;quot;:&amp;quot;w&amp;quot;},{&amp;quot;action&amp;quot;:&amp;quot;line&amp;quot;,&amp;quot;y&amp;quot;:&amp;quot;h&amp;quot;,&amp;quot;x&amp;quot;:&amp;quot;0&amp;quot;},{&amp;quot;action&amp;quot;:&amp;quot;close&amp;quot;}]}],&amp;quot;fillStyle&amp;quot;:{},&amp;quot;locked&amp;quot;:false,&amp;quot;group&amp;quot;:&amp;quot;&amp;quot;,&amp;quot;props&amp;quot;:{&amp;quot;w&amp;quot;:79,&amp;quot;angle&amp;quot;:0,&amp;quot;h&amp;quot;:48,&amp;quot;y&amp;quot;:555,&amp;quot;zindex&amp;quot;:21,&amp;quot;x&amp;quot;:728.5}},{&amp;quot;textBlock&amp;quot;:[{&amp;quot;position&amp;quot;:{&amp;quot;w&amp;quot;:&amp;quot;w+40&amp;quot;,&amp;quot;y&amp;quot;:&amp;quot;h&amp;quot;,&amp;quot;h&amp;quot;:&amp;quot;30&amp;quot;,&amp;quot;x&amp;quot;:&amp;quot;-20&amp;quot;},&amp;quot;text&amp;quot;:&amp;quot;&amp;quot;}],&amp;quot;lineStyle&amp;quot;:{&amp;quot;lineWidth&amp;quot;:0},&amp;quot;link&amp;quot;:&amp;quot;&amp;quot;,&amp;quot;children&amp;quot;:[],&amp;quot;parent&amp;quot;:&amp;quot;&amp;quot;,&amp;quot;attribute&amp;quot;:{&amp;quot;linkable&amp;quot;:true,&amp;quot;visible&amp;quot;:true,&amp;quot;container&amp;quot;:false,&amp;quot;rotatable&amp;quot;:true,&amp;quot;markerOffset&amp;quot;:5,&amp;quot;collapsable&amp;quot;:false,&amp;quot;collapsed&amp;quot;:false},&amp;quot;fontStyle&amp;quot;:{},&amp;quot;resizeDir&amp;quot;:[&amp;quot;tl&amp;quot;,&amp;quot;tr&amp;quot;,&amp;quot;br&amp;quot;,&amp;quot;bl&amp;quot;],&amp;quot;dataAttributes&amp;quot;:[],&amp;quot;shapeStyle&amp;quot;:{&amp;quot;alpha&amp;quot;:1},&amp;quot;id&amp;quot;:&amp;quot;165b289147990b&amp;quot;,&amp;quot;anchors&amp;quot;:[{&amp;quot;y&amp;quot;:&amp;quot;0&amp;quot;,&amp;quot;x&amp;quot;:&amp;quot;w/2&amp;quot;},{&amp;quot;y&amp;quot;:&amp;quot;h&amp;quot;,&amp;quot;x&amp;quot;:&amp;quot;w/2&amp;quot;},{&amp;quot;y&amp;quot;:&amp;quot;h/2&amp;quot;,&amp;quot;x&amp;quot;:&amp;quot;0&amp;quot;},{&amp;quot;y&amp;quot;:&amp;quot;h/2&amp;quot;,&amp;quot;x&amp;quot;:&amp;quot;w&amp;quot;}],&amp;quot;category&amp;quot;:&amp;quot;network&amp;quot;,&amp;quot;title&amp;quot;:&amp;quot;Access Point&amp;quot;,&amp;quot;name&amp;quot;:&amp;quot;access point&amp;quot;,&amp;quot;fillStyle&amp;quot;:{},&amp;quot;path&amp;quot;:[{&amp;quot;lineStyle&amp;quot;:{&amp;quot;lineWidth&amp;quot;:0},&amp;quot;fillStyle&amp;quot;:{&amp;quot;fileId&amp;quot;:&amp;quot;/assets/images/designer/network/accessPoint.svg&amp;quot;,&amp;quot;display&amp;quot;:&amp;quot;stretch&amp;quot;,&amp;quot;type&amp;quot;:&amp;quot;image&amp;quot;},&amp;quot;actions&amp;quot;:[{&amp;quot;action&amp;quot;:&amp;quot;move&amp;quot;,&amp;quot;y&amp;quot;:&amp;quot;0&amp;quot;,&amp;quot;x&amp;quot;:&amp;quot;0&amp;quot;},{&amp;quot;action&amp;quot;:&amp;quot;line&amp;quot;,&amp;quot;y&amp;quot;:&amp;quot;0&amp;quot;,&amp;quot;x&amp;quot;:&amp;quot;w&amp;quot;},{&amp;quot;action&amp;quot;:&amp;quot;line&amp;quot;,&amp;quot;y&amp;quot;:&amp;quot;h&amp;quot;,&amp;quot;x&amp;quot;:&amp;quot;w&amp;quot;},{&amp;quot;action&amp;quot;:&amp;quot;line&amp;quot;,&amp;quot;y&amp;quot;:&amp;quot;h&amp;quot;,&amp;quot;x&amp;quot;:&amp;quot;0&amp;quot;},{&amp;quot;action&amp;quot;:&amp;quot;close&amp;quot;}]}],&amp;quot;locked&amp;quot;:false,&amp;quot;props&amp;quot;:{&amp;quot;w&amp;quot;:80,&amp;quot;y&amp;quot;:443.5,&amp;quot;h&amp;quot;:58,&amp;quot;angle&amp;quot;:0,&amp;quot;x&amp;quot;:712,&amp;quot;zindex&amp;quot;:22}},{&amp;quot;textBlock&amp;quot;:[{&amp;quot;position&amp;quot;:{&amp;quot;w&amp;quot;:&amp;quot;w&amp;quot;,&amp;quot;y&amp;quot;:0,&amp;quot;h&amp;quot;:&amp;quot;h&amp;quot;,&amp;quot;x&amp;quot;:0},&amp;quot;text&amp;quot;:&amp;quot;来宾WIFI&amp;quot;}],&amp;quot;lineStyle&amp;quot;:{},&amp;quot;link&amp;quot;:&amp;quot;&amp;quot;,&amp;quot;children&amp;quot;:[],&amp;quot;parent&amp;quot;:&amp;quot;&amp;quot;,&amp;quot;attribute&amp;quot;:{&amp;quot;linkable&amp;quot;:false,&amp;quot;visible&amp;quot;:true,&amp;quot;container&amp;quot;:false,&amp;quot;rotatable&amp;quot;:true,&amp;quot;markerOffset&amp;quot;:5,&amp;quot;collapsable&amp;quot;:false,&amp;quot;collapsed&amp;quot;:false},&amp;quot;fontStyle&amp;quot;:{&amp;quot;size&amp;quot;:15},&amp;quot;resizeDir&amp;quot;:[&amp;quot;tl&amp;quot;,&amp;quot;tr&amp;quot;,&amp;quot;br&amp;quot;,&amp;quot;bl&amp;quot;],&amp;quot;dataAttributes&amp;quot;:[{&amp;quot;id&amp;quot;:&amp;quot;165b2891ab183c&amp;quot;,&amp;quot;category&amp;quot;:&amp;quot;default&amp;quot;,&amp;quot;name&amp;quot;:&amp;quot;序号&amp;quot;,&amp;quot;value&amp;quot;:&amp;quot;&amp;quot;,&amp;quot;type&amp;quot;:&amp;quot;number&amp;quot;},{&amp;quot;id&amp;quot;:&amp;quot;165b2891ab13ad&amp;quot;,&amp;quot;category&amp;quot;:&amp;quot;default&amp;quot;,&amp;quot;name&amp;quot;:&amp;quot;名称&amp;quot;,&amp;quot;value&amp;quot;:&amp;quot;&amp;quot;,&amp;quot;type&amp;quot;:&amp;quot;string&amp;quot;},{&amp;quot;id&amp;quot;:&amp;quot;165b2891ab1f45&amp;quot;,&amp;quot;category&amp;quot;:&amp;quot;default&amp;quot;,&amp;quot;name&amp;quot;:&amp;quot;所有者&amp;quot;,&amp;quot;value&amp;quot;:&amp;quot;&amp;quot;,&amp;quot;type&amp;quot;:&amp;quot;string&amp;quot;},{&amp;quot;id&amp;quot;:&amp;quot;165b2891ab1aae&amp;quot;,&amp;quot;category&amp;quot;:&amp;quot;default&amp;quot;,&amp;quot;name&amp;quot;:&amp;quot;连接&amp;quot;,&amp;quot;value&amp;quot;:&amp;quot;&amp;quot;,&amp;quot;type&amp;quot;:&amp;quot;link&amp;quot;},{&amp;quot;id&amp;quot;:&amp;quot;165b2891ab1a1b&amp;quot;,&amp;quot;category&amp;quot;:&amp;quot;default&amp;quot;,&amp;quot;name&amp;quot;:&amp;quot;便笺&amp;quot;,&amp;quot;value&amp;quot;:&amp;quot;&amp;quot;,&amp;quot;type&amp;quot;:&amp;quot;string&amp;quot;}],&amp;quot;shapeStyle&amp;quot;:{&amp;quot;alpha&amp;quot;:1},&amp;quot;id&amp;quot;:&amp;quot;165b289147959e&amp;quot;,&amp;quot;anchors&amp;quot;:[],&amp;quot;category&amp;quot;:&amp;quot;basic&amp;quot;,&amp;quot;title&amp;quot;:&amp;quot;文本&amp;quot;,&amp;quot;name&amp;quot;:&amp;quot;text&amp;quot;,&amp;quot;fillStyle&amp;quot;:{},&amp;quot;path&amp;quot;:[{&amp;quot;lineStyle&amp;quot;:{&amp;quot;lineWidth&amp;quot;:0},&amp;quot;fillStyle&amp;quot;:{&amp;quot;type&amp;quot;:&amp;quot;none&amp;quot;},&amp;quot;actions&amp;quot;:[{&amp;quot;action&amp;quot;:&amp;quot;move&amp;quot;,&amp;quot;y&amp;quot;:&amp;quot;0&amp;quot;,&amp;quot;x&amp;quot;:&amp;quot;0&amp;quot;},{&amp;quot;action&amp;quot;:&amp;quot;line&amp;quot;,&amp;quot;y&amp;quot;:&amp;quot;0&amp;quot;,&amp;quot;x&amp;quot;:&amp;quot;w&amp;quot;},{&amp;quot;action&amp;quot;:&amp;quot;line&amp;quot;,&amp;quot;y&amp;quot;:&amp;quot;h&amp;quot;,&amp;quot;x&amp;quot;:&amp;quot;w&amp;quot;},{&amp;quot;action&amp;quot;:&amp;quot;line&amp;quot;,&amp;quot;y&amp;quot;:&amp;quot;h&amp;quot;,&amp;quot;x&amp;quot;:&amp;quot;0&amp;quot;},{&amp;quot;action&amp;quot;:&amp;quot;close&amp;quot;}]}],&amp;quot;locked&amp;quot;:false,&amp;quot;props&amp;quot;:{&amp;quot;w&amp;quot;:106,&amp;quot;y&amp;quot;:473.5,&amp;quot;h&amp;quot;:28,&amp;quot;angle&amp;quot;:0,&amp;quot;x&amp;quot;:796,&amp;quot;zindex&amp;quot;:23}},{&amp;quot;id&amp;quot;:&amp;quot;165b2898a7a3d1&amp;quot;,&amp;quot;to&amp;quot;:{&amp;quot;id&amp;quot;:&amp;quot;165b25f36a961f&amp;quot;,&amp;quot;y&amp;quot;:371,&amp;quot;angle&amp;quot;:4.71238898038469,&amp;quot;x&amp;quot;:520},&amp;quot;text&amp;quot;:&amp;quot;&amp;quot;,&amp;quot;linkerType&amp;quot;:&amp;quot;broken&amp;quot;,&amp;quot;name&amp;quot;:&amp;quot;linker&amp;quot;,&amp;quot;lineStyle&amp;quot;:{&amp;quot;endArrowStyle&amp;quot;:&amp;quot;none&amp;quot;},&amp;quot;points&amp;quot;:[{&amp;quot;y&amp;quot;:490,&amp;quot;x&amp;quot;:520}],&amp;quot;locked&amp;quot;:false,&amp;quot;dataAttributes&amp;quot;:[],&amp;quot;from&amp;quot;:{&amp;quot;id&amp;quot;:&amp;quot;165b289147990b&amp;quot;,&amp;quot;y&amp;quot;:490,&amp;quot;angle&amp;quot;:0,&amp;quot;x&amp;quot;:712},&amp;quot;group&amp;quot;:&amp;quot;&amp;quot;,&amp;quot;props&amp;quot;:{&amp;quot;zindex&amp;quot;:24},&amp;quot;textBlock&amp;quot;:[]},{&amp;quot;textBlock&amp;quot;:[{&amp;quot;position&amp;quot;:{&amp;quot;w&amp;quot;:&amp;quot;w&amp;quot;,&amp;quot;y&amp;quot;:0,&amp;quot;h&amp;quot;:&amp;quot;h&amp;quot;,&amp;quot;x&amp;quot;:0},&amp;quot;text&amp;quot;:&amp;quot;员工无线连接终端&amp;quot;}],&amp;quot;lineStyle&amp;quot;:{},&amp;quot;link&amp;quot;:&amp;quot;&amp;quot;,&amp;quot;children&amp;quot;:[],&amp;quot;parent&amp;quot;:&amp;quot;&amp;quot;,&amp;quot;attribute&amp;quot;:{&amp;quot;linkable&amp;quot;:false,&amp;quot;visible&amp;quot;:true,&amp;quot;container&amp;quot;:false,&amp;quot;rotatable&amp;quot;:true,&amp;quot;markerOffset&amp;quot;:5,&amp;quot;collapsable&amp;quot;:false,&amp;quot;collapsed&amp;quot;:false},&amp;quot;fontStyle&amp;quot;:{},&amp;quot;resizeDir&amp;quot;:[&amp;quot;tl&amp;quot;,&amp;quot;tr&amp;quot;,&amp;quot;br&amp;quot;,&amp;quot;bl&amp;quot;],&amp;quot;dataAttributes&amp;quot;:[{&amp;quot;id&amp;quot;:&amp;quot;165b28a0cdaacb&amp;quot;,&amp;quot;category&amp;quot;:&amp;quot;default&amp;quot;,&amp;quot;name&amp;quot;:&amp;quot;序号&amp;quot;,&amp;quot;value&amp;quot;:&amp;quot;&amp;quot;,&amp;quot;type&amp;quot;:&amp;quot;number&amp;quot;},{&amp;quot;id&amp;quot;:&amp;quot;165b28a0cda3d1&amp;quot;,&amp;quot;category&amp;quot;:&amp;quot;default&amp;quot;,&amp;quot;name&amp;quot;:&amp;quot;名称&amp;quot;,&amp;quot;value&amp;quot;:&amp;quot;&amp;quot;,&amp;quot;type&amp;quot;:&amp;quot;string&amp;quot;},{&amp;quot;id&amp;quot;:&amp;quot;165b28a0cda9ea&amp;quot;,&amp;quot;category&amp;quot;:&amp;quot;default&amp;quot;,&amp;quot;name&amp;quot;:&amp;quot;所有者&amp;quot;,&amp;quot;value&amp;quot;:&amp;quot;&amp;quot;,&amp;quot;type&amp;quot;:&amp;quot;string&amp;quot;},{&amp;quot;id&amp;quot;:&amp;quot;165b28a0cdacf7&amp;quot;,&amp;quot;category&amp;quot;:&amp;quot;default&amp;quot;,&amp;quot;name&amp;quot;:&amp;quot;连接&amp;quot;,&amp;quot;value&amp;quot;:&amp;quot;&amp;quot;,&amp;quot;type&amp;quot;:&amp;quot;link&amp;quot;},{&amp;quot;id&amp;quot;:&amp;quot;165b28a0cda5b8&amp;quot;,&amp;quot;category&amp;quot;:&amp;quot;default&amp;quot;,&amp;quot;name&amp;quot;:&amp;quot;便笺&amp;quot;,&amp;quot;value&amp;quot;:&amp;quot;&amp;quot;,&amp;quot;type&amp;quot;:&amp;quot;string&amp;quot;}],&amp;quot;shapeStyle&amp;quot;:{&amp;quot;alpha&amp;quot;:1},&amp;quot;id&amp;quot;:&amp;quot;165b28a0cdab5e&amp;quot;,&amp;quot;anchors&amp;quot;:[],&amp;quot;category&amp;quot;:&amp;quot;basic&amp;quot;,&amp;quot;title&amp;quot;:&amp;quot;文本&amp;quot;,&amp;quot;name&amp;quot;:&amp;quot;text&amp;quot;,&amp;quot;fillStyle&amp;quot;:{},&amp;quot;path&amp;quot;:[{&amp;quot;lineStyle&amp;quot;:{&amp;quot;lineWidth&amp;quot;:0},&amp;quot;fillStyle&amp;quot;:{&amp;quot;type&amp;quot;:&amp;quot;none&amp;quot;},&amp;quot;actions&amp;quot;:[{&amp;quot;action&amp;quot;:&amp;quot;move&amp;quot;,&amp;quot;y&amp;quot;:&amp;quot;0&amp;quot;,&amp;quot;x&amp;quot;:&amp;quot;0&amp;quot;},{&amp;quot;action&amp;quot;:&amp;quot;line&amp;quot;,&amp;quot;y&amp;quot;:&amp;quot;0&amp;quot;,&amp;quot;x&amp;quot;:&amp;quot;w&amp;quot;},{&amp;quot;action&amp;quot;:&amp;quot;line&amp;quot;,&amp;quot;y&amp;quot;:&amp;quot;h&amp;quot;,&amp;quot;x&amp;quot;:&amp;quot;w&amp;quot;},{&amp;quot;action&amp;quot;:&amp;quot;line&amp;quot;,&amp;quot;y&amp;quot;:&amp;quot;h&amp;quot;,&amp;quot;x&amp;quot;:&amp;quot;0&amp;quot;},{&amp;quot;action&amp;quot;:&amp;quot;close&amp;quot;}]}],&amp;quot;locked&amp;quot;:false,&amp;quot;group&amp;quot;:&amp;quot;&amp;quot;,&amp;quot;props&amp;quot;:{&amp;quot;w&amp;quot;:160,&amp;quot;y&amp;quot;:639,&amp;quot;h&amp;quot;:40,&amp;quot;angle&amp;quot;:0,&amp;quot;x&amp;quot;:93,&amp;quot;zindex&amp;quot;:25}},{&amp;quot;textBlock&amp;quot;:[{&amp;quot;position&amp;quot;:{&amp;quot;w&amp;quot;:&amp;quot;w&amp;quot;,&amp;quot;h&amp;quot;:&amp;quot;h&amp;quot;,&amp;quot;y&amp;quot;:0,&amp;quot;x&amp;quot;:0},&amp;quot;text&amp;quot;:&amp;quot;员工有线连接终端&amp;quot;}],&amp;quot;lineStyle&amp;quot;:{},&amp;quot;link&amp;quot;:&amp;quot;&amp;quot;,&amp;quot;children&amp;quot;:[],&amp;quot;parent&amp;quot;:&amp;quot;&amp;quot;,&amp;quot;attribute&amp;quot;:{&amp;quot;linkable&amp;quot;:false,&amp;quot;visible&amp;quot;:true,&amp;quot;container&amp;quot;:false,&amp;quot;rotatable&amp;quot;:true,&amp;quot;markerOffset&amp;quot;:5,&amp;quot;collapsable&amp;quot;:false,&amp;quot;collapsed&amp;quot;:false},&amp;quot;fontStyle&amp;quot;:{},&amp;quot;resizeDir&amp;quot;:[&amp;quot;tl&amp;quot;,&amp;quot;tr&amp;quot;,&amp;quot;br&amp;quot;,&amp;quot;bl&amp;quot;],&amp;quot;dataAttributes&amp;quot;:[{&amp;quot;id&amp;quot;:&amp;quot;165b28a5c262d&amp;quot;,&amp;quot;category&amp;quot;:&amp;quot;default&amp;quot;,&amp;quot;name&amp;quot;:&amp;quot;序号&amp;quot;,&amp;quot;value&amp;quot;:&amp;quot;&amp;quot;,&amp;quot;type&amp;quot;:&amp;quot;number&amp;quot;},{&amp;quot;id&amp;quot;:&amp;quot;165b28a5c26ca5&amp;quot;,&amp;quot;category&amp;quot;:&amp;quot;default&amp;quot;,&amp;quot;name&amp;quot;:&amp;quot;名称&amp;quot;,&amp;quot;value&amp;quot;:&amp;quot;&amp;quot;,&amp;quot;type&amp;quot;:&amp;quot;string&amp;quot;},{&amp;quot;id&amp;quot;:&amp;quot;165b28a5c26bbc&amp;quot;,&amp;quot;category&amp;quot;:&amp;quot;default&amp;quot;,&amp;quot;name&amp;quot;:&amp;quot;所有者&amp;quot;,&amp;quot;value&amp;quot;:&amp;quot;&amp;quot;,&amp;quot;type&amp;quot;:&amp;quot;string&amp;quot;},{&amp;quot;id&amp;quot;:&amp;quot;165b28a5c26fa&amp;quot;,&amp;quot;category&amp;quot;:&amp;quot;default&amp;quot;,&amp;quot;name&amp;quot;:&amp;quot;连接&amp;quot;,&amp;quot;value&amp;quot;:&amp;quot;&amp;quot;,&amp;quot;type&amp;quot;:&amp;quot;link&amp;quot;},{&amp;quot;id&amp;quot;:&amp;quot;165b28a5c26b4f&amp;quot;,&amp;quot;category&amp;quot;:&amp;quot;default&amp;quot;,&amp;quot;name&amp;quot;:&amp;quot;便笺&amp;quot;,&amp;quot;value&amp;quot;:&amp;quot;&amp;quot;,&amp;quot;type&amp;quot;:&amp;quot;string&amp;quot;}],&amp;quot;shapeStyle&amp;quot;:{&amp;quot;alpha&amp;quot;:1},&amp;quot;id&amp;quot;:&amp;quot;165b28a54aaab2&amp;quot;,&amp;quot;anchors&amp;quot;:[],&amp;quot;title&amp;quot;:&amp;quot;文本&amp;quot;,&amp;quot;category&amp;quot;:&amp;quot;basic&amp;quot;,&amp;quot;name&amp;quot;:&amp;quot;text&amp;quot;,&amp;quot;path&amp;quot;:[{&amp;quot;lineStyle&amp;quot;:{&amp;quot;lineWidth&amp;quot;:0},&amp;quot;fillStyle&amp;quot;:{&amp;quot;type&amp;quot;:&amp;quot;none&amp;quot;},&amp;quot;actions&amp;quot;:[{&amp;quot;action&amp;quot;:&amp;quot;move&amp;quot;,&amp;quot;y&amp;quot;:&amp;quot;0&amp;quot;,&amp;quot;x&amp;quot;:&amp;quot;0&amp;quot;},{&amp;quot;action&amp;quot;:&amp;quot;line&amp;quot;,&amp;quot;y&amp;quot;:&amp;quot;0&amp;quot;,&amp;quot;x&amp;quot;:&amp;quot;w&amp;quot;},{&amp;quot;action&amp;quot;:&amp;quot;line&amp;quot;,&amp;quot;y&amp;quot;:&amp;quot;h&amp;quot;,&amp;quot;x&amp;quot;:&amp;quot;w&amp;quot;},{&amp;quot;action&amp;quot;:&amp;quot;line&amp;quot;,&amp;quot;y&amp;quot;:&amp;quot;h&amp;quot;,&amp;quot;x&amp;quot;:&amp;quot;0&amp;quot;},{&amp;quot;action&amp;quot;:&amp;quot;close&amp;quot;}]}],&amp;quot;fillStyle&amp;quot;:{},&amp;quot;locked&amp;quot;:false,&amp;quot;group&amp;quot;:&amp;quot;&amp;quot;,&amp;quot;props&amp;quot;:{&amp;quot;w&amp;quot;:160,&amp;quot;angle&amp;quot;:0,&amp;quot;h&amp;quot;:40,&amp;quot;y&amp;quot;:646,&amp;quot;zindex&amp;quot;:26,&amp;quot;x&amp;quot;:372.25}},{&amp;quot;textBlock&amp;quot;:[{&amp;quot;position&amp;quot;:{&amp;quot;w&amp;quot;:&amp;quot;w+40&amp;quot;,&amp;quot;h&amp;quot;:&amp;quot;30&amp;quot;,&amp;quot;y&amp;quot;:&amp;quot;h&amp;quot;,&amp;quot;x&amp;quot;:&amp;quot;-20&amp;quot;},&amp;quot;text&amp;quot;:&amp;quot;&amp;quot;}],&amp;quot;lineStyle&amp;quot;:{&amp;quot;lineWidth&amp;quot;:0},&amp;quot;link&amp;quot;:&amp;quot;&amp;quot;,&amp;quot;children&amp;quot;:[],&amp;quot;parent&amp;quot;:&amp;quot;&amp;quot;,&amp;quot;attribute&amp;quot;:{&amp;quot;linkable&amp;quot;:true,&amp;quot;visible&amp;quot;:true,&amp;quot;container&amp;quot;:false,&amp;quot;rotatable&amp;quot;:true,&amp;quot;markerOffset&amp;quot;:5,&amp;quot;collapsable&amp;quot;:false,&amp;quot;collapsed&amp;quot;:false},&amp;quot;fontStyle&amp;quot;:{},&amp;quot;resizeDir&amp;quot;:[&amp;quot;tl&amp;quot;,&amp;quot;tr&amp;quot;,&amp;quot;br&amp;quot;,&amp;quot;bl&amp;quot;],&amp;quot;dataAttributes&amp;quot;:[],&amp;quot;shapeStyle&amp;quot;:{&amp;quot;alpha&amp;quot;:1},&amp;quot;id&amp;quot;:&amp;quot;165b28aac4b572&amp;quot;,&amp;quot;anchors&amp;quot;:[{&amp;quot;y&amp;quot;:&amp;quot;0&amp;quot;,&amp;quot;x&amp;quot;:&amp;quot;w/2&amp;quot;},{&amp;quot;y&amp;quot;:&amp;quot;h&amp;quot;,&amp;quot;x&amp;quot;:&amp;quot;w/2&amp;quot;},{&amp;quot;y&amp;quot;:&amp;quot;h/2&amp;quot;,&amp;quot;x&amp;quot;:&amp;quot;0&amp;quot;},{&amp;quot;y&amp;quot;:&amp;quot;h/2&amp;quot;,&amp;quot;x&amp;quot;:&amp;quot;w&amp;quot;}],&amp;quot;title&amp;quot;:&amp;quot;Signal&amp;quot;,&amp;quot;category&amp;quot;:&amp;quot;network&amp;quot;,&amp;quot;name&amp;quot;:&amp;quot;signal&amp;quot;,&amp;quot;path&amp;quot;:[{&amp;quot;lineStyle&amp;quot;:{&amp;quot;lineWidth&amp;quot;:0},&amp;quot;fillStyle&amp;quot;:{&amp;quot;fileId&amp;quot;:&amp;quot;/assets/images/designer/network/signal.svg&amp;quot;,&amp;quot;display&amp;quot;:&amp;quot;stretch&amp;quot;,&amp;quot;type&amp;quot;:&amp;quot;image&amp;quot;},&amp;quot;actions&amp;quot;:[{&amp;quot;action&amp;quot;:&amp;quot;move&amp;quot;,&amp;quot;y&amp;quot;:&amp;quot;0&amp;quot;,&amp;quot;x&amp;quot;:&amp;quot;0&amp;quot;},{&amp;quot;action&amp;quot;:&amp;quot;line&amp;quot;,&amp;quot;y&amp;quot;:&amp;quot;0&amp;quot;,&amp;quot;x&amp;quot;:&amp;quot;w&amp;quot;},{&amp;quot;action&amp;quot;:&amp;quot;line&amp;quot;,&amp;quot;y&amp;quot;:&amp;quot;h&amp;quot;,&amp;quot;x&amp;quot;:&amp;quot;w&amp;quot;},{&amp;quot;action&amp;quot;:&amp;quot;line&amp;quot;,&amp;quot;y&amp;quot;:&amp;quot;h&amp;quot;,&amp;quot;x&amp;quot;:&amp;quot;0&amp;quot;},{&amp;quot;action&amp;quot;:&amp;quot;close&amp;quot;}]}],&amp;quot;fillStyle&amp;quot;:{},&amp;quot;locked&amp;quot;:false,&amp;quot;group&amp;quot;:&amp;quot;&amp;quot;,&amp;quot;props&amp;quot;:{&amp;quot;w&amp;quot;:28.352101773309187,&amp;quot;angle&amp;quot;:1.5707963267948966,&amp;quot;h&amp;quot;:42.229822806824586,&amp;quot;y&amp;quot;:504.2701771931754,&amp;quot;zindex&amp;quot;:27,&amp;quot;x&amp;quot;:741.9388605167577}}],&amp;quot;client&amp;quot;:&amp;quot;1695711730163wwjPgGTDjB665326&amp;quot;}&quot;&gt; &lt;/div&gt;" style="text;whiteSpace=wrap;html=1;" vertex="1" parent="1">
          <mxGeometry x="923.4285714285716" y="2982.9642857142862" width="28" height="22" as="geometry" />
        </mxCell>
        <mxCell id="LkdOfVyFh3dFV3emHNXY-90" style="edgeStyle=none;rounded=0;html=1;startSize=10;endSize=10;jettySize=auto;orthogonalLoop=1;fontSize=14;endArrow=none;endFill=0;strokeWidth=2;" edge="1" parent="1" source="LkdOfVyFh3dFV3emHNXY-91" target="LkdOfVyFh3dFV3emHNXY-118">
          <mxGeometry relative="1" as="geometry">
            <mxPoint x="664" y="2644.5" as="targetPoint" />
          </mxGeometry>
        </mxCell>
        <mxCell id="LkdOfVyFh3dFV3emHNXY-91" value="" style="verticalLabelPosition=bottom;aspect=fixed;html=1;verticalAlign=top;strokeColor=none;shape=mxgraph.citrix.xenapp_server;fillColor=#66B2FF;gradientColor=#0066CC;fontSize=14;" vertex="1" parent="1">
          <mxGeometry x="563.9999999999999" y="2611.5" width="76" height="89" as="geometry" />
        </mxCell>
        <mxCell id="LkdOfVyFh3dFV3emHNXY-92" style="edgeStyle=none;rounded=0;html=1;startSize=10;endSize=10;jettySize=auto;orthogonalLoop=1;fontSize=14;endArrow=none;endFill=0;strokeWidth=2;" edge="1" parent="1" source="LkdOfVyFh3dFV3emHNXY-93" target="LkdOfVyFh3dFV3emHNXY-116">
          <mxGeometry relative="1" as="geometry" />
        </mxCell>
        <mxCell id="LkdOfVyFh3dFV3emHNXY-93" value="" style="verticalLabelPosition=bottom;aspect=fixed;html=1;verticalAlign=top;strokeColor=none;shape=mxgraph.citrix.xenapp_server;fillColor=#66B2FF;gradientColor=#0066CC;fontSize=14;" vertex="1" parent="1">
          <mxGeometry x="564.0000000000001" y="2447.5" width="76" height="89" as="geometry" />
        </mxCell>
        <mxCell id="LkdOfVyFh3dFV3emHNXY-100" style="edgeStyle=none;rounded=0;html=1;startSize=10;endSize=10;jettySize=auto;orthogonalLoop=1;fontSize=14;endArrow=none;endFill=0;strokeWidth=2;" edge="1" parent="1" source="LkdOfVyFh3dFV3emHNXY-104" target="LkdOfVyFh3dFV3emHNXY-108">
          <mxGeometry relative="1" as="geometry" />
        </mxCell>
        <mxCell id="LkdOfVyFh3dFV3emHNXY-101" style="edgeStyle=none;rounded=0;html=1;startSize=10;endSize=10;jettySize=auto;orthogonalLoop=1;fontSize=14;endArrow=none;endFill=0;strokeWidth=2;" edge="1" parent="1" source="LkdOfVyFh3dFV3emHNXY-104" target="LkdOfVyFh3dFV3emHNXY-107">
          <mxGeometry relative="1" as="geometry" />
        </mxCell>
        <mxCell id="LkdOfVyFh3dFV3emHNXY-102" style="edgeStyle=none;rounded=0;html=1;startSize=10;endSize=10;jettySize=auto;orthogonalLoop=1;fontSize=14;endArrow=none;endFill=0;strokeWidth=2;" edge="1" parent="1" target="LkdOfVyFh3dFV3emHNXY-123">
          <mxGeometry relative="1" as="geometry">
            <mxPoint x="956.5" y="2602.70918367347" as="sourcePoint" />
          </mxGeometry>
        </mxCell>
        <mxCell id="LkdOfVyFh3dFV3emHNXY-103" style="edgeStyle=none;rounded=0;html=1;startSize=10;endSize=10;jettySize=auto;orthogonalLoop=1;fontSize=14;endArrow=none;endFill=0;strokeWidth=2;" edge="1" parent="1" source="LkdOfVyFh3dFV3emHNXY-104" target="LkdOfVyFh3dFV3emHNXY-119">
          <mxGeometry relative="1" as="geometry" />
        </mxCell>
        <mxCell id="LkdOfVyFh3dFV3emHNXY-104" value="" style="verticalLabelPosition=bottom;aspect=fixed;html=1;verticalAlign=top;strokeColor=none;shape=mxgraph.citrix.router;fillColor=#66B2FF;gradientColor=#0066CC;fontSize=14;" vertex="1" parent="1">
          <mxGeometry x="930.5" y="2585" width="55" height="36.5" as="geometry" />
        </mxCell>
        <mxCell id="LkdOfVyFh3dFV3emHNXY-105" style="edgeStyle=none;rounded=0;html=1;startSize=10;endSize=10;jettySize=auto;orthogonalLoop=1;fontSize=14;endArrow=none;endFill=0;strokeWidth=2;" edge="1" parent="1" source="LkdOfVyFh3dFV3emHNXY-106" target="LkdOfVyFh3dFV3emHNXY-91">
          <mxGeometry relative="1" as="geometry" />
        </mxCell>
        <mxCell id="LkdOfVyFh3dFV3emHNXY-106" value="" style="verticalLabelPosition=bottom;aspect=fixed;html=1;verticalAlign=top;strokeColor=none;shape=mxgraph.citrix.xenclient_synchronizer;fillColor=#CCCCCC;gradientColor=#000000;gradientDirection=south;fontSize=14;" vertex="1" parent="1">
          <mxGeometry x="563.9999999999999" y="2774.5" width="76" height="91" as="geometry" />
        </mxCell>
        <mxCell id="LkdOfVyFh3dFV3emHNXY-107" value="Web Server" style="verticalLabelPosition=top;aspect=fixed;html=1;verticalAlign=bottom;strokeColor=none;shape=mxgraph.citrix.cache_server;fillColor=#66B2FF;gradientColor=#0066CC;fontSize=14;labelPosition=center;align=center;" vertex="1" parent="1">
          <mxGeometry x="922.5" y="2330" width="71" height="97.5" as="geometry" />
        </mxCell>
        <mxCell id="LkdOfVyFh3dFV3emHNXY-108" value="DNS" style="verticalLabelPosition=bottom;aspect=fixed;html=1;verticalAlign=top;strokeColor=none;shape=mxgraph.citrix.chassis;fillColor=#66B2FF;gradientColor=#0066CC;fontSize=14;" vertex="1" parent="1">
          <mxGeometry x="1093.5" y="2796.25" width="137.5" height="177.5" as="geometry" />
        </mxCell>
        <mxCell id="LkdOfVyFh3dFV3emHNXY-115" style="edgeStyle=none;rounded=0;html=1;startSize=10;endSize=10;jettySize=auto;orthogonalLoop=1;fontSize=14;endArrow=none;endFill=0;strokeWidth=2;" edge="1" parent="1" source="LkdOfVyFh3dFV3emHNXY-116" target="LkdOfVyFh3dFV3emHNXY-104">
          <mxGeometry relative="1" as="geometry" />
        </mxCell>
        <mxCell id="LkdOfVyFh3dFV3emHNXY-116" value="" style="verticalLabelPosition=bottom;aspect=fixed;html=1;verticalAlign=top;strokeColor=none;shape=mxgraph.citrix.firewall;fillColor=#66B2FF;gradientColor=#0066CC;fontSize=14;" vertex="1" parent="1">
          <mxGeometry x="686" y="2447.5" width="75" height="93" as="geometry" />
        </mxCell>
        <mxCell id="LkdOfVyFh3dFV3emHNXY-117" style="edgeStyle=none;rounded=0;html=1;startSize=10;endSize=10;jettySize=auto;orthogonalLoop=1;fontSize=14;endArrow=none;endFill=0;strokeWidth=2;" edge="1" parent="1" source="LkdOfVyFh3dFV3emHNXY-118" target="LkdOfVyFh3dFV3emHNXY-104">
          <mxGeometry relative="1" as="geometry" />
        </mxCell>
        <mxCell id="LkdOfVyFh3dFV3emHNXY-118" value="" style="verticalLabelPosition=bottom;aspect=fixed;html=1;verticalAlign=top;strokeColor=none;shape=mxgraph.citrix.firewall;fillColor=#66B2FF;gradientColor=#0066CC;fontSize=14;" vertex="1" parent="1">
          <mxGeometry x="686" y="2611.5" width="75" height="93" as="geometry" />
        </mxCell>
        <mxCell id="LkdOfVyFh3dFV3emHNXY-119" value="Secure Server" style="verticalLabelPosition=bottom;aspect=fixed;html=1;verticalAlign=top;strokeColor=none;shape=mxgraph.citrix.proxy_server;fillColor=#66B2FF;gradientColor=#0066CC;fontSize=14;" vertex="1" parent="1">
          <mxGeometry x="1373.5" y="2738.25" width="76.5" height="90" as="geometry" />
        </mxCell>
        <mxCell id="LkdOfVyFh3dFV3emHNXY-120" style="edgeStyle=none;rounded=0;html=1;startSize=10;endSize=10;jettySize=auto;orthogonalLoop=1;fontSize=14;endArrow=none;endFill=0;strokeWidth=2;" edge="1" parent="1" source="LkdOfVyFh3dFV3emHNXY-123" target="LkdOfVyFh3dFV3emHNXY-126">
          <mxGeometry relative="1" as="geometry" />
        </mxCell>
        <mxCell id="LkdOfVyFh3dFV3emHNXY-121" style="edgeStyle=none;rounded=0;html=1;startSize=10;endSize=10;jettySize=auto;orthogonalLoop=1;fontSize=14;endArrow=none;endFill=0;strokeWidth=2;" edge="1" parent="1" source="LkdOfVyFh3dFV3emHNXY-123" target="LkdOfVyFh3dFV3emHNXY-125">
          <mxGeometry relative="1" as="geometry" />
        </mxCell>
        <mxCell id="LkdOfVyFh3dFV3emHNXY-122" style="edgeStyle=none;rounded=0;html=1;startSize=10;endSize=10;jettySize=auto;orthogonalLoop=1;fontSize=14;endArrow=none;endFill=0;strokeWidth=2;" edge="1" parent="1" source="LkdOfVyFh3dFV3emHNXY-123" target="LkdOfVyFh3dFV3emHNXY-124">
          <mxGeometry relative="1" as="geometry" />
        </mxCell>
        <mxCell id="LkdOfVyFh3dFV3emHNXY-123" value="" style="verticalLabelPosition=bottom;aspect=fixed;html=1;verticalAlign=top;strokeColor=none;shape=mxgraph.citrix.switch;fillColor=#66B2FF;gradientColor=#0066CC;fontSize=14;" vertex="1" parent="1">
          <mxGeometry x="1103.5" y="2515" width="92" height="41.5" as="geometry" />
        </mxCell>
        <mxCell id="LkdOfVyFh3dFV3emHNXY-124" value="Client" style="verticalLabelPosition=top;aspect=fixed;html=1;verticalAlign=bottom;strokeColor=none;shape=mxgraph.citrix.thin_client;fillColor=#66B2FF;gradientColor=#0066CC;fontSize=14;labelPosition=center;align=center;" vertex="1" parent="1">
          <mxGeometry x="1365.5" y="2505" width="71" height="71" as="geometry" />
        </mxCell>
        <mxCell id="LkdOfVyFh3dFV3emHNXY-125" value="Client" style="verticalLabelPosition=top;aspect=fixed;html=1;verticalAlign=bottom;strokeColor=none;shape=mxgraph.citrix.thin_client;fillColor=#66B2FF;gradientColor=#0066CC;fontSize=14;labelPosition=center;align=center;" vertex="1" parent="1">
          <mxGeometry x="1287.5" y="2381" width="71" height="71" as="geometry" />
        </mxCell>
        <mxCell id="LkdOfVyFh3dFV3emHNXY-126" value="Client" style="verticalLabelPosition=top;aspect=fixed;html=1;verticalAlign=bottom;strokeColor=none;shape=mxgraph.citrix.thin_client;fillColor=#66B2FF;gradientColor=#0066CC;fontSize=14;labelPosition=center;align=center;" vertex="1" parent="1">
          <mxGeometry x="1131.5" y="2345" width="71" height="71" as="geometry" />
        </mxCell>
        <mxCell id="LkdOfVyFh3dFV3emHNXY-127" style="edgeStyle=none;rounded=0;html=1;startSize=10;endSize=10;jettySize=auto;orthogonalLoop=1;fontSize=14;endArrow=none;endFill=0;strokeWidth=2;" edge="1" parent="1" source="LkdOfVyFh3dFV3emHNXY-128" target="LkdOfVyFh3dFV3emHNXY-104">
          <mxGeometry relative="1" as="geometry" />
        </mxCell>
        <mxCell id="LkdOfVyFh3dFV3emHNXY-128" value="Web service" style="verticalLabelPosition=bottom;aspect=fixed;html=1;verticalAlign=top;strokeColor=none;shape=mxgraph.citrix.web_service;fillColor=#66B2FF;gradientColor=#0066CC;fontSize=14;" vertex="1" parent="1">
          <mxGeometry x="956.5" y="2848.25" width="63" height="60" as="geometry" />
        </mxCell>
        <mxCell id="LkdOfVyFh3dFV3emHNXY-129" value="" style="verticalLabelPosition=bottom;aspect=fixed;html=1;verticalAlign=top;strokeColor=none;shape=mxgraph.citrix.site;fillColor=#66B2FF;gradientColor=#0066CC;fontSize=14;" vertex="1" parent="1">
          <mxGeometry x="1373.5" y="2933.25" width="107" height="101" as="geometry" />
        </mxCell>
        <mxCell id="LkdOfVyFh3dFV3emHNXY-174" value="" style="endArrow=none;html=1;rounded=0;entryX=0.325;entryY=0.816;entryDx=0;entryDy=0;entryPerimeter=0;exitX=0.584;exitY=-0.041;exitDx=0;exitDy=0;exitPerimeter=0;" edge="1" parent="1" source="LkdOfVyFh3dFV3emHNXY-21" target="LkdOfVyFh3dFV3emHNXY-106">
          <mxGeometry width="50" height="50" relative="1" as="geometry">
            <mxPoint x="438" y="3285" as="sourcePoint" />
            <mxPoint x="488" y="3235" as="targetPoint" />
          </mxGeometry>
        </mxCell>
        <mxCell id="LkdOfVyFh3dFV3emHNXY-175" value="" style="endArrow=none;html=1;rounded=0;entryX=0.288;entryY=0.91;entryDx=0;entryDy=0;entryPerimeter=0;" edge="1" parent="1" source="LkdOfVyFh3dFV3emHNXY-20" target="LkdOfVyFh3dFV3emHNXY-106">
          <mxGeometry width="50" height="50" relative="1" as="geometry">
            <mxPoint x="661" y="3145" as="sourcePoint" />
            <mxPoint x="711" y="3095" as="targetPoint" />
          </mxGeometry>
        </mxCell>
        <mxCell id="LkdOfVyFh3dFV3emHNXY-176" value="" style="endArrow=none;html=1;rounded=0;" edge="1" parent="1" source="LkdOfVyFh3dFV3emHNXY-2">
          <mxGeometry width="50" height="50" relative="1" as="geometry">
            <mxPoint x="849.5" y="3284" as="sourcePoint" />
            <mxPoint x="985.5" y="2897" as="targetPoint" />
          </mxGeometry>
        </mxCell>
        <mxCell id="LkdOfVyFh3dFV3emHNXY-177" value="" style="endArrow=none;html=1;rounded=0;" edge="1" parent="1" source="LkdOfVyFh3dFV3emHNXY-20">
          <mxGeometry width="50" height="50" relative="1" as="geometry">
            <mxPoint x="930.5" y="3326" as="sourcePoint" />
            <mxPoint x="989" y="2900" as="targetPoint" />
          </mxGeometry>
        </mxCell>
        <mxCell id="LkdOfVyFh3dFV3emHNXY-178" value="" style="endArrow=none;html=1;rounded=0;entryX=0.222;entryY=1.03;entryDx=0;entryDy=0;entryPerimeter=0;" edge="1" parent="1" target="LkdOfVyFh3dFV3emHNXY-129">
          <mxGeometry width="50" height="50" relative="1" as="geometry">
            <mxPoint x="966" y="3337" as="sourcePoint" />
            <mxPoint x="1131" y="3192" as="targetPoint" />
          </mxGeometry>
        </mxCell>
        <mxCell id="LkdOfVyFh3dFV3emHNXY-179" value="" style="endArrow=none;html=1;rounded=0;entryX=0.276;entryY=1.087;entryDx=0;entryDy=0;entryPerimeter=0;exitX=0.673;exitY=0.082;exitDx=0;exitDy=0;exitPerimeter=0;" edge="1" parent="1" source="LkdOfVyFh3dFV3emHNXY-8" target="LkdOfVyFh3dFV3emHNXY-129">
          <mxGeometry width="50" height="50" relative="1" as="geometry">
            <mxPoint x="1329" y="3205" as="sourcePoint" />
            <mxPoint x="1379" y="3155" as="targetPoint" />
          </mxGeometry>
        </mxCell>
        <mxCell id="LkdOfVyFh3dFV3emHNXY-180" value="" style="endArrow=none;html=1;rounded=0;entryX=0.568;entryY=0.939;entryDx=0;entryDy=0;entryPerimeter=0;exitX=0.64;exitY=0.111;exitDx=0;exitDy=0;exitPerimeter=0;" edge="1" parent="1" source="LkdOfVyFh3dFV3emHNXY-8" target="LkdOfVyFh3dFV3emHNXY-108">
          <mxGeometry width="50" height="50" relative="1" as="geometry">
            <mxPoint x="1164" y="3199" as="sourcePoint" />
            <mxPoint x="1214" y="3149" as="targetPoint" />
          </mxGeometry>
        </mxCell>
        <mxCell id="LkdOfVyFh3dFV3emHNXY-184" value="&lt;font style=&quot;font-size: 16px;&quot;&gt;VPN&amp;nbsp;&lt;br&gt;加密传输&lt;/font&gt;" style="text;html=1;strokeColor=none;fillColor=none;align=center;verticalAlign=middle;whiteSpace=wrap;rounded=0;" vertex="1" parent="1">
          <mxGeometry x="542" y="3088" width="87.5" height="33" as="geometry" />
        </mxCell>
        <mxCell id="LkdOfVyFh3dFV3emHNXY-187" value="&lt;font style=&quot;font-size: 16px;&quot;&gt;VPN&amp;nbsp;&lt;br&gt;加密传输&lt;/font&gt;" style="text;html=1;strokeColor=none;fillColor=none;align=center;verticalAlign=middle;whiteSpace=wrap;rounded=0;" vertex="1" parent="1">
          <mxGeometry x="1138.5" y="3098" width="87.5" height="33" as="geometry" />
        </mxCell>
      </root>
    </mxGraphModel>
  </diagram>
</mxfile>
